<mxfile host="app.diagrams.net" modified="2023-12-07T20:13:12.159Z" agent="Mozilla/5.0 (Macintosh; Intel Mac OS X 10_15_7) AppleWebKit/537.36 (KHTML, like Gecko) Chrome/119.0.0.0 Safari/537.36" etag="S-afSBxvpzxjr0JHEM87" version="22.1.7" type="github">
  <diagram name="Page-1" id="Ql9pxvtIcCwwE8i6y1hl">
    <mxGraphModel dx="2057" dy="2009" grid="1" gridSize="10" guides="1" tooltips="1" connect="1" arrows="1" fold="1" page="1" pageScale="1" pageWidth="850" pageHeight="1100" math="0" shadow="0">
      <root>
        <mxCell id="0" />
        <mxCell id="1" parent="0" />
        <mxCell id="eCBL7U5E57jNzbd9nTni-171" value="" style="swimlane;startSize=0;rounded=1;shadow=0;glass=0;strokeWidth=1;arcSize=60;connectable=0;absoluteArcSize=1;" parent="1" vertex="1">
          <mxGeometry x="-770" y="-970" width="340" height="760" as="geometry">
            <mxRectangle x="-275" y="-825" width="50" height="40" as="alternateBounds" />
          </mxGeometry>
        </mxCell>
        <mxCell id="eCBL7U5E57jNzbd9nTni-19" value="User" style="html=1;whiteSpace=wrap;fillColor=#a0522d;strokeColor=#6D1F00;fontColor=#ffffff;" parent="eCBL7U5E57jNzbd9nTni-171" vertex="1">
          <mxGeometry x="23.75" y="660" width="60" height="40" as="geometry" />
        </mxCell>
        <mxCell id="eCBL7U5E57jNzbd9nTni-52" value="User registered" style="html=1;whiteSpace=wrap;fillColor=#ffe6cc;strokeColor=#d79b00;" parent="eCBL7U5E57jNzbd9nTni-171" vertex="1">
          <mxGeometry x="223.75" y="650" width="92.5" height="60" as="geometry" />
        </mxCell>
        <mxCell id="eCBL7U5E57jNzbd9nTni-53" value="Money added" style="html=1;whiteSpace=wrap;fillColor=#ffe6cc;strokeColor=#d79b00;" parent="eCBL7U5E57jNzbd9nTni-171" vertex="1">
          <mxGeometry x="65.63" y="230" width="92.5" height="60" as="geometry" />
        </mxCell>
        <mxCell id="eCBL7U5E57jNzbd9nTni-54" value="Money changed" style="html=1;whiteSpace=wrap;fillColor=#ffe6cc;strokeColor=#d79b00;" parent="eCBL7U5E57jNzbd9nTni-171" vertex="1">
          <mxGeometry x="175.63" y="230" width="92.5" height="60" as="geometry" />
        </mxCell>
        <mxCell id="eCBL7U5E57jNzbd9nTni-86" style="edgeStyle=orthogonalEdgeStyle;rounded=0;orthogonalLoop=1;jettySize=auto;html=1;exitX=1;exitY=0.5;exitDx=0;exitDy=0;entryX=0;entryY=0.5;entryDx=0;entryDy=0;" parent="eCBL7U5E57jNzbd9nTni-171" source="eCBL7U5E57jNzbd9nTni-81" target="eCBL7U5E57jNzbd9nTni-52" edge="1">
          <mxGeometry relative="1" as="geometry" />
        </mxCell>
        <mxCell id="eCBL7U5E57jNzbd9nTni-81" value="Register" style="html=1;whiteSpace=wrap;fillColor=#1ba1e2;strokeColor=#006EAF;fontColor=#ffffff;" parent="eCBL7U5E57jNzbd9nTni-171" vertex="1">
          <mxGeometry x="123.75" y="660" width="60" height="40" as="geometry" />
        </mxCell>
        <mxCell id="eCBL7U5E57jNzbd9nTni-84" style="edgeStyle=orthogonalEdgeStyle;rounded=0;orthogonalLoop=1;jettySize=auto;html=1;exitX=1;exitY=0.5;exitDx=0;exitDy=0;entryX=0;entryY=0.5;entryDx=0;entryDy=0;" parent="eCBL7U5E57jNzbd9nTni-171" source="eCBL7U5E57jNzbd9nTni-19" target="eCBL7U5E57jNzbd9nTni-81" edge="1">
          <mxGeometry relative="1" as="geometry" />
        </mxCell>
        <mxCell id="eCBL7U5E57jNzbd9nTni-99" value="User" style="html=1;whiteSpace=wrap;fillColor=#a0522d;strokeColor=#6D1F00;fontColor=#ffffff;" parent="eCBL7U5E57jNzbd9nTni-171" vertex="1">
          <mxGeometry x="140.63" y="410" width="60" height="40" as="geometry" />
        </mxCell>
        <mxCell id="eCBL7U5E57jNzbd9nTni-102" style="edgeStyle=orthogonalEdgeStyle;rounded=0;orthogonalLoop=1;jettySize=auto;html=1;entryX=0.5;entryY=1;entryDx=0;entryDy=0;" parent="eCBL7U5E57jNzbd9nTni-171" source="eCBL7U5E57jNzbd9nTni-100" target="eCBL7U5E57jNzbd9nTni-53" edge="1">
          <mxGeometry relative="1" as="geometry" />
        </mxCell>
        <mxCell id="eCBL7U5E57jNzbd9nTni-100" value="Add money" style="html=1;whiteSpace=wrap;fillColor=#1ba1e2;strokeColor=#006EAF;fontColor=#ffffff;" parent="eCBL7U5E57jNzbd9nTni-171" vertex="1">
          <mxGeometry x="140.63" y="340" width="60" height="40" as="geometry" />
        </mxCell>
        <mxCell id="eCBL7U5E57jNzbd9nTni-101" style="edgeStyle=orthogonalEdgeStyle;rounded=0;orthogonalLoop=1;jettySize=auto;html=1;entryX=0.5;entryY=1;entryDx=0;entryDy=0;" parent="eCBL7U5E57jNzbd9nTni-171" source="eCBL7U5E57jNzbd9nTni-99" target="eCBL7U5E57jNzbd9nTni-100" edge="1">
          <mxGeometry relative="1" as="geometry" />
        </mxCell>
        <mxCell id="eCBL7U5E57jNzbd9nTni-104" value="System" style="html=1;whiteSpace=wrap;fillColor=#008a00;strokeColor=#005700;fontColor=#ffffff;" parent="eCBL7U5E57jNzbd9nTni-171" vertex="1">
          <mxGeometry x="191.88" y="90" width="60" height="40" as="geometry" />
        </mxCell>
        <mxCell id="eCBL7U5E57jNzbd9nTni-107" style="edgeStyle=orthogonalEdgeStyle;rounded=0;orthogonalLoop=1;jettySize=auto;html=1;entryX=0.5;entryY=0;entryDx=0;entryDy=0;" parent="eCBL7U5E57jNzbd9nTni-171" source="eCBL7U5E57jNzbd9nTni-105" target="eCBL7U5E57jNzbd9nTni-54" edge="1">
          <mxGeometry relative="1" as="geometry" />
        </mxCell>
        <mxCell id="eCBL7U5E57jNzbd9nTni-105" value="Change wallet" style="html=1;whiteSpace=wrap;fillColor=#1ba1e2;strokeColor=#006EAF;fontColor=#ffffff;" parent="eCBL7U5E57jNzbd9nTni-171" vertex="1">
          <mxGeometry x="191.88" y="160" width="60" height="40" as="geometry" />
        </mxCell>
        <mxCell id="eCBL7U5E57jNzbd9nTni-106" style="edgeStyle=orthogonalEdgeStyle;rounded=0;orthogonalLoop=1;jettySize=auto;html=1;entryX=0.5;entryY=0;entryDx=0;entryDy=0;" parent="eCBL7U5E57jNzbd9nTni-171" source="eCBL7U5E57jNzbd9nTni-104" target="eCBL7U5E57jNzbd9nTni-105" edge="1">
          <mxGeometry relative="1" as="geometry" />
        </mxCell>
        <mxCell id="eCBL7U5E57jNzbd9nTni-164" value="Money" style="html=1;whiteSpace=wrap;fillColor=#d80073;strokeColor=#A50040;fontColor=#ffffff;" parent="eCBL7U5E57jNzbd9nTni-171" vertex="1">
          <mxGeometry x="210.63" y="300" width="57.5" height="25" as="geometry" />
        </mxCell>
        <mxCell id="eCBL7U5E57jNzbd9nTni-219" value="USER SERVICE" style="text;html=1;align=center;verticalAlign=middle;resizable=0;points=[];autosize=1;strokeColor=none;fillColor=none;" parent="eCBL7U5E57jNzbd9nTni-171" vertex="1">
          <mxGeometry x="13.75" y="15" width="110" height="30" as="geometry" />
        </mxCell>
        <mxCell id="eCBL7U5E57jNzbd9nTni-162" value="User" style="html=1;whiteSpace=wrap;fillColor=#d80073;strokeColor=#A50040;fontColor=#ffffff;" parent="eCBL7U5E57jNzbd9nTni-171" vertex="1">
          <mxGeometry x="110.63" y="560" width="100" height="60" as="geometry" />
        </mxCell>
        <mxCell id="eCBL7U5E57jNzbd9nTni-163" value="Wallet" style="html=1;whiteSpace=wrap;fillColor=#d80073;strokeColor=#A50040;fontColor=#ffffff;" parent="eCBL7U5E57jNzbd9nTni-171" vertex="1">
          <mxGeometry x="223.75" y="560" width="70" height="40" as="geometry" />
        </mxCell>
        <mxCell id="eCBL7U5E57jNzbd9nTni-173" value="" style="swimlane;startSize=0;rounded=1;shadow=0;glass=0;strokeWidth=1;arcSize=60;connectable=0;absoluteArcSize=1;" parent="1" vertex="1">
          <mxGeometry x="-2" y="-970" width="982.5" height="500" as="geometry">
            <mxRectangle x="-275" y="-825" width="50" height="40" as="alternateBounds" />
          </mxGeometry>
        </mxCell>
        <mxCell id="eCBL7U5E57jNzbd9nTni-29" value="Order purchased" style="html=1;whiteSpace=wrap;fillColor=#ffe6cc;strokeColor=#d79b00;" parent="eCBL7U5E57jNzbd9nTni-173" vertex="1">
          <mxGeometry x="366.25" y="300" width="115" height="60" as="geometry" />
        </mxCell>
        <mxCell id="eCBL7U5E57jNzbd9nTni-31" value="Order failed" style="html=1;whiteSpace=wrap;fillColor=#ffe6cc;strokeColor=#d79b00;" parent="eCBL7U5E57jNzbd9nTni-173" vertex="1">
          <mxGeometry x="516.25" y="150" width="107.5" height="60" as="geometry" />
        </mxCell>
        <mxCell id="eCBL7U5E57jNzbd9nTni-32" value="Order discarded" style="html=1;whiteSpace=wrap;fillColor=#ffe6cc;strokeColor=#d79b00;" parent="eCBL7U5E57jNzbd9nTni-173" vertex="1">
          <mxGeometry x="366.25" y="70" width="110" height="60" as="geometry" />
        </mxCell>
        <mxCell id="eCBL7U5E57jNzbd9nTni-34" value="Order products unbooked" style="html=1;whiteSpace=wrap;fillColor=#ffe6cc;strokeColor=#d79b00;" parent="eCBL7U5E57jNzbd9nTni-173" vertex="1">
          <mxGeometry x="528.75" y="390" width="95" height="60" as="geometry" />
        </mxCell>
        <mxCell id="eCBL7U5E57jNzbd9nTni-39" value="Order created" style="html=1;whiteSpace=wrap;fillColor=#ffe6cc;strokeColor=#d79b00;" parent="eCBL7U5E57jNzbd9nTni-173" vertex="1">
          <mxGeometry x="366.25" y="190" width="110" height="60" as="geometry" />
        </mxCell>
        <mxCell id="eCBL7U5E57jNzbd9nTni-44" value="Order accepted" style="html=1;whiteSpace=wrap;fillColor=#ffe6cc;strokeColor=#d79b00;" parent="eCBL7U5E57jNzbd9nTni-173" vertex="1">
          <mxGeometry x="516.25" y="270" width="107.5" height="60" as="geometry" />
        </mxCell>
        <mxCell id="eCBL7U5E57jNzbd9nTni-119" value="User" style="html=1;whiteSpace=wrap;fillColor=#a0522d;strokeColor=#6D1F00;fontColor=#ffffff;" parent="eCBL7U5E57jNzbd9nTni-173" vertex="1">
          <mxGeometry x="56.25" y="200" width="60" height="40" as="geometry" />
        </mxCell>
        <mxCell id="eCBL7U5E57jNzbd9nTni-124" style="edgeStyle=orthogonalEdgeStyle;rounded=0;orthogonalLoop=1;jettySize=auto;html=1;" parent="eCBL7U5E57jNzbd9nTni-173" source="eCBL7U5E57jNzbd9nTni-122" target="eCBL7U5E57jNzbd9nTni-39" edge="1">
          <mxGeometry relative="1" as="geometry" />
        </mxCell>
        <mxCell id="eCBL7U5E57jNzbd9nTni-122" value="Create order" style="html=1;whiteSpace=wrap;fillColor=#1ba1e2;strokeColor=#006EAF;fontColor=#ffffff;" parent="eCBL7U5E57jNzbd9nTni-173" vertex="1">
          <mxGeometry x="236.25" y="200" width="60" height="40" as="geometry" />
        </mxCell>
        <mxCell id="eCBL7U5E57jNzbd9nTni-123" style="edgeStyle=orthogonalEdgeStyle;rounded=0;orthogonalLoop=1;jettySize=auto;html=1;entryX=0;entryY=0.5;entryDx=0;entryDy=0;" parent="eCBL7U5E57jNzbd9nTni-173" source="eCBL7U5E57jNzbd9nTni-119" target="eCBL7U5E57jNzbd9nTni-122" edge="1">
          <mxGeometry relative="1" as="geometry" />
        </mxCell>
        <mxCell id="eCBL7U5E57jNzbd9nTni-132" style="edgeStyle=orthogonalEdgeStyle;rounded=0;orthogonalLoop=1;jettySize=auto;html=1;entryX=0;entryY=0.5;entryDx=0;entryDy=0;" parent="eCBL7U5E57jNzbd9nTni-173" source="eCBL7U5E57jNzbd9nTni-125" target="eCBL7U5E57jNzbd9nTni-29" edge="1">
          <mxGeometry relative="1" as="geometry" />
        </mxCell>
        <mxCell id="eCBL7U5E57jNzbd9nTni-125" value="Purchase" style="html=1;whiteSpace=wrap;fillColor=#1ba1e2;strokeColor=#006EAF;fontColor=#ffffff;" parent="eCBL7U5E57jNzbd9nTni-173" vertex="1">
          <mxGeometry x="236.25" y="310" width="60" height="40" as="geometry" />
        </mxCell>
        <mxCell id="eCBL7U5E57jNzbd9nTni-133" style="edgeStyle=orthogonalEdgeStyle;rounded=0;orthogonalLoop=1;jettySize=auto;html=1;entryX=0;entryY=0.5;entryDx=0;entryDy=0;exitX=1;exitY=0.75;exitDx=0;exitDy=0;" parent="eCBL7U5E57jNzbd9nTni-173" source="eCBL7U5E57jNzbd9nTni-119" target="eCBL7U5E57jNzbd9nTni-125" edge="1">
          <mxGeometry relative="1" as="geometry" />
        </mxCell>
        <mxCell id="eCBL7U5E57jNzbd9nTni-145" style="edgeStyle=orthogonalEdgeStyle;rounded=0;orthogonalLoop=1;jettySize=auto;html=1;entryX=1;entryY=0.5;entryDx=0;entryDy=0;" parent="eCBL7U5E57jNzbd9nTni-173" source="eCBL7U5E57jNzbd9nTni-127" target="eCBL7U5E57jNzbd9nTni-44" edge="1">
          <mxGeometry relative="1" as="geometry" />
        </mxCell>
        <mxCell id="eCBL7U5E57jNzbd9nTni-127" value="Validate" style="html=1;whiteSpace=wrap;fillColor=#1ba1e2;strokeColor=#006EAF;fontColor=#ffffff;" parent="eCBL7U5E57jNzbd9nTni-173" vertex="1">
          <mxGeometry x="686.25" y="220" width="60" height="40" as="geometry" />
        </mxCell>
        <mxCell id="eCBL7U5E57jNzbd9nTni-130" style="edgeStyle=orthogonalEdgeStyle;rounded=0;orthogonalLoop=1;jettySize=auto;html=1;entryX=1;entryY=0.5;entryDx=0;entryDy=0;" parent="eCBL7U5E57jNzbd9nTni-173" source="eCBL7U5E57jNzbd9nTni-127" target="eCBL7U5E57jNzbd9nTni-31" edge="1">
          <mxGeometry relative="1" as="geometry" />
        </mxCell>
        <mxCell id="eCBL7U5E57jNzbd9nTni-136" style="edgeStyle=orthogonalEdgeStyle;rounded=0;orthogonalLoop=1;jettySize=auto;html=1;entryX=0;entryY=0.5;entryDx=0;entryDy=0;" parent="eCBL7U5E57jNzbd9nTni-173" source="eCBL7U5E57jNzbd9nTni-134" target="eCBL7U5E57jNzbd9nTni-32" edge="1">
          <mxGeometry relative="1" as="geometry" />
        </mxCell>
        <mxCell id="eCBL7U5E57jNzbd9nTni-134" value="Discard" style="html=1;whiteSpace=wrap;fillColor=#1ba1e2;strokeColor=#006EAF;fontColor=#ffffff;" parent="eCBL7U5E57jNzbd9nTni-173" vertex="1">
          <mxGeometry x="236.25" y="80" width="60" height="40" as="geometry" />
        </mxCell>
        <mxCell id="eCBL7U5E57jNzbd9nTni-135" style="edgeStyle=orthogonalEdgeStyle;rounded=0;orthogonalLoop=1;jettySize=auto;html=1;entryX=0;entryY=0.5;entryDx=0;entryDy=0;exitX=1;exitY=0.25;exitDx=0;exitDy=0;" parent="eCBL7U5E57jNzbd9nTni-173" source="eCBL7U5E57jNzbd9nTni-119" target="eCBL7U5E57jNzbd9nTni-134" edge="1">
          <mxGeometry relative="1" as="geometry" />
        </mxCell>
        <mxCell id="eCBL7U5E57jNzbd9nTni-147" style="edgeStyle=orthogonalEdgeStyle;rounded=0;orthogonalLoop=1;jettySize=auto;html=1;entryX=1;entryY=0.5;entryDx=0;entryDy=0;exitX=0;exitY=0.75;exitDx=0;exitDy=0;" parent="eCBL7U5E57jNzbd9nTni-173" source="eCBL7U5E57jNzbd9nTni-137" target="eCBL7U5E57jNzbd9nTni-127" edge="1">
          <mxGeometry relative="1" as="geometry" />
        </mxCell>
        <mxCell id="eCBL7U5E57jNzbd9nTni-137" value="System" style="html=1;whiteSpace=wrap;fillColor=#008a00;strokeColor=#005700;fontColor=#ffffff;" parent="eCBL7U5E57jNzbd9nTni-173" vertex="1">
          <mxGeometry x="866.25" y="150" width="60" height="40" as="geometry" />
        </mxCell>
        <mxCell id="eCBL7U5E57jNzbd9nTni-144" style="edgeStyle=orthogonalEdgeStyle;rounded=0;orthogonalLoop=1;jettySize=auto;html=1;" parent="eCBL7U5E57jNzbd9nTni-173" source="eCBL7U5E57jNzbd9nTni-140" target="eCBL7U5E57jNzbd9nTni-32" edge="1">
          <mxGeometry relative="1" as="geometry" />
        </mxCell>
        <mxCell id="eCBL7U5E57jNzbd9nTni-140" value="Discard" style="html=1;whiteSpace=wrap;fillColor=#1ba1e2;strokeColor=#006EAF;fontColor=#ffffff;" parent="eCBL7U5E57jNzbd9nTni-173" vertex="1">
          <mxGeometry x="686.25" y="80" width="60" height="40" as="geometry" />
        </mxCell>
        <mxCell id="eCBL7U5E57jNzbd9nTni-148" style="edgeStyle=orthogonalEdgeStyle;rounded=0;orthogonalLoop=1;jettySize=auto;html=1;entryX=1;entryY=0.5;entryDx=0;entryDy=0;exitX=0;exitY=0.25;exitDx=0;exitDy=0;" parent="eCBL7U5E57jNzbd9nTni-173" source="eCBL7U5E57jNzbd9nTni-137" target="eCBL7U5E57jNzbd9nTni-140" edge="1">
          <mxGeometry relative="1" as="geometry" />
        </mxCell>
        <mxCell id="eCBL7U5E57jNzbd9nTni-157" style="edgeStyle=orthogonalEdgeStyle;rounded=0;orthogonalLoop=1;jettySize=auto;html=1;entryX=1;entryY=0.5;entryDx=0;entryDy=0;" parent="eCBL7U5E57jNzbd9nTni-173" source="eCBL7U5E57jNzbd9nTni-154" target="eCBL7U5E57jNzbd9nTni-34" edge="1">
          <mxGeometry relative="1" as="geometry" />
        </mxCell>
        <mxCell id="eCBL7U5E57jNzbd9nTni-154" value="Timed out" style="html=1;whiteSpace=wrap;fillColor=#1ba1e2;strokeColor=#006EAF;fontColor=#ffffff;" parent="eCBL7U5E57jNzbd9nTni-173" vertex="1">
          <mxGeometry x="866.25" y="400" width="60" height="40" as="geometry" />
        </mxCell>
        <mxCell id="eCBL7U5E57jNzbd9nTni-158" value="Order" style="html=1;whiteSpace=wrap;fillColor=#d80073;strokeColor=#A50040;fontColor=#ffffff;" parent="eCBL7U5E57jNzbd9nTni-173" vertex="1">
          <mxGeometry x="247" y="395" width="65" height="50" as="geometry" />
        </mxCell>
        <mxCell id="eCBL7U5E57jNzbd9nTni-159" value="user" style="html=1;whiteSpace=wrap;fillColor=#d80073;strokeColor=#A50040;fontColor=#ffffff;" parent="eCBL7U5E57jNzbd9nTni-173" vertex="1">
          <mxGeometry x="56.25" y="170" width="40" height="20" as="geometry" />
        </mxCell>
        <mxCell id="eCBL7U5E57jNzbd9nTni-160" value="product" style="html=1;whiteSpace=wrap;fillColor=#d80073;strokeColor=#A50040;fontColor=#ffffff;" parent="eCBL7U5E57jNzbd9nTni-173" vertex="1">
          <mxGeometry x="327" y="425" width="72.5" height="20" as="geometry" />
        </mxCell>
        <mxCell id="eCBL7U5E57jNzbd9nTni-161" value="Validator" style="html=1;whiteSpace=wrap;fillColor=#d80073;strokeColor=#A50040;fontColor=#ffffff;" parent="eCBL7U5E57jNzbd9nTni-173" vertex="1">
          <mxGeometry x="686.25" y="290" width="72.5" height="20" as="geometry" />
        </mxCell>
        <mxCell id="eCBL7U5E57jNzbd9nTni-155" style="edgeStyle=orthogonalEdgeStyle;rounded=0;orthogonalLoop=1;jettySize=auto;html=1;entryX=0.5;entryY=0;entryDx=0;entryDy=0;" parent="eCBL7U5E57jNzbd9nTni-173" source="eCBL7U5E57jNzbd9nTni-137" target="eCBL7U5E57jNzbd9nTni-154" edge="1">
          <mxGeometry relative="1" as="geometry" />
        </mxCell>
        <mxCell id="eCBL7U5E57jNzbd9nTni-217" value="ORDER SERVICE" style="text;html=1;align=center;verticalAlign=middle;resizable=0;points=[];autosize=1;strokeColor=none;fillColor=none;" parent="eCBL7U5E57jNzbd9nTni-173" vertex="1">
          <mxGeometry x="36.25" y="20" width="120" height="30" as="geometry" />
        </mxCell>
        <mxCell id="eCBL7U5E57jNzbd9nTni-175" value="" style="swimlane;startSize=0;rounded=1;shadow=0;glass=0;strokeWidth=1;arcSize=60;connectable=0;absoluteArcSize=1;" parent="1" vertex="1">
          <mxGeometry x="-2" y="-460" width="790" height="270" as="geometry">
            <mxRectangle x="-275" y="-825" width="50" height="40" as="alternateBounds" />
          </mxGeometry>
        </mxCell>
        <mxCell id="eCBL7U5E57jNzbd9nTni-93" value="Warehouse" style="html=1;whiteSpace=wrap;fillColor=#d80073;strokeColor=#A50040;fontColor=#ffffff;" parent="eCBL7U5E57jNzbd9nTni-175" vertex="1">
          <mxGeometry x="495" y="20" width="65" height="50" as="geometry" />
        </mxCell>
        <mxCell id="eCBL7U5E57jNzbd9nTni-94" value="Item" style="html=1;whiteSpace=wrap;fillColor=#d80073;strokeColor=#A50040;fontColor=#ffffff;" parent="eCBL7U5E57jNzbd9nTni-175" vertex="1">
          <mxGeometry x="540" y="90" width="40" height="20" as="geometry" />
        </mxCell>
        <mxCell id="eCBL7U5E57jNzbd9nTni-95" value="System" style="html=1;whiteSpace=wrap;fillColor=#008a00;strokeColor=#005700;fontColor=#ffffff;" parent="eCBL7U5E57jNzbd9nTni-175" vertex="1">
          <mxGeometry x="520" y="120" width="60" height="40" as="geometry" />
        </mxCell>
        <mxCell id="eCBL7U5E57jNzbd9nTni-92" value="Product&amp;nbsp;reserved" style="html=1;whiteSpace=wrap;fillColor=#ffe6cc;strokeColor=#d79b00;" parent="eCBL7U5E57jNzbd9nTni-175" vertex="1">
          <mxGeometry x="673" y="110" width="95" height="60" as="geometry" />
        </mxCell>
        <mxCell id="eCBL7U5E57jNzbd9nTni-45" value="Product&amp;nbsp;deleted&lt;br&gt;from Warehouse" style="html=1;whiteSpace=wrap;fillColor=#ffe6cc;strokeColor=#d79b00;" parent="eCBL7U5E57jNzbd9nTni-175" vertex="1">
          <mxGeometry x="675" y="190" width="95" height="60" as="geometry" />
        </mxCell>
        <mxCell id="eCBL7U5E57jNzbd9nTni-41" value="Product&amp;nbsp;added&lt;br&gt;to Warehouse" style="html=1;whiteSpace=wrap;fillColor=#ffe6cc;strokeColor=#d79b00;" parent="eCBL7U5E57jNzbd9nTni-175" vertex="1">
          <mxGeometry x="675" y="20" width="95" height="60" as="geometry" />
        </mxCell>
        <mxCell id="eCBL7U5E57jNzbd9nTni-98" style="edgeStyle=orthogonalEdgeStyle;rounded=0;orthogonalLoop=1;jettySize=auto;html=1;entryX=0;entryY=0.5;entryDx=0;entryDy=0;" parent="eCBL7U5E57jNzbd9nTni-175" source="eCBL7U5E57jNzbd9nTni-95" target="eCBL7U5E57jNzbd9nTni-92" edge="1">
          <mxGeometry relative="1" as="geometry" />
        </mxCell>
        <mxCell id="eCBL7U5E57jNzbd9nTni-97" style="edgeStyle=orthogonalEdgeStyle;rounded=0;orthogonalLoop=1;jettySize=auto;html=1;entryX=0;entryY=0.5;entryDx=0;entryDy=0;exitX=1;exitY=0.75;exitDx=0;exitDy=0;" parent="eCBL7U5E57jNzbd9nTni-175" source="eCBL7U5E57jNzbd9nTni-95" target="eCBL7U5E57jNzbd9nTni-45" edge="1">
          <mxGeometry relative="1" as="geometry" />
        </mxCell>
        <mxCell id="eCBL7U5E57jNzbd9nTni-96" style="edgeStyle=orthogonalEdgeStyle;rounded=0;orthogonalLoop=1;jettySize=auto;html=1;entryX=0;entryY=0.5;entryDx=0;entryDy=0;exitX=1;exitY=0.25;exitDx=0;exitDy=0;" parent="eCBL7U5E57jNzbd9nTni-175" source="eCBL7U5E57jNzbd9nTni-95" target="eCBL7U5E57jNzbd9nTni-41" edge="1">
          <mxGeometry relative="1" as="geometry" />
        </mxCell>
        <mxCell id="eCBL7U5E57jNzbd9nTni-216" value="WAREHOUSE SERVICE" style="text;html=1;align=center;verticalAlign=middle;resizable=0;points=[];autosize=1;strokeColor=none;fillColor=none;" parent="eCBL7U5E57jNzbd9nTni-175" vertex="1">
          <mxGeometry x="-3" y="10" width="160" height="30" as="geometry" />
        </mxCell>
        <mxCell id="eCBL7U5E57jNzbd9nTni-20" value="Product booked" style="html=1;whiteSpace=wrap;fillColor=#ffe6cc;strokeColor=#d79b00;" parent="eCBL7U5E57jNzbd9nTni-175" vertex="1">
          <mxGeometry x="271.75" y="80" width="95" height="60" as="geometry" />
        </mxCell>
        <mxCell id="eCBL7U5E57jNzbd9nTni-30" value="Product unbooked" style="html=1;whiteSpace=wrap;fillColor=#ffe6cc;strokeColor=#d79b00;" parent="eCBL7U5E57jNzbd9nTni-175" vertex="1">
          <mxGeometry x="271.75" y="190" width="95" height="60" as="geometry" />
        </mxCell>
        <mxCell id="eCBL7U5E57jNzbd9nTni-71" value="User" style="html=1;whiteSpace=wrap;fillColor=#a0522d;strokeColor=#6D1F00;fontColor=#ffffff;" parent="eCBL7U5E57jNzbd9nTni-175" vertex="1">
          <mxGeometry x="40" y="150" width="60" height="40" as="geometry" />
        </mxCell>
        <mxCell id="eCBL7U5E57jNzbd9nTni-89" style="edgeStyle=orthogonalEdgeStyle;rounded=0;orthogonalLoop=1;jettySize=auto;html=1;entryX=0;entryY=0.5;entryDx=0;entryDy=0;" parent="eCBL7U5E57jNzbd9nTni-175" source="eCBL7U5E57jNzbd9nTni-87" target="eCBL7U5E57jNzbd9nTni-20" edge="1">
          <mxGeometry relative="1" as="geometry" />
        </mxCell>
        <mxCell id="eCBL7U5E57jNzbd9nTni-87" value="Book" style="html=1;whiteSpace=wrap;fillColor=#1ba1e2;strokeColor=#006EAF;fontColor=#ffffff;" parent="eCBL7U5E57jNzbd9nTni-175" vertex="1">
          <mxGeometry x="161.75" y="90" width="60" height="40" as="geometry" />
        </mxCell>
        <mxCell id="eCBL7U5E57jNzbd9nTni-88" style="edgeStyle=orthogonalEdgeStyle;rounded=0;orthogonalLoop=1;jettySize=auto;html=1;exitX=1;exitY=0.25;exitDx=0;exitDy=0;" parent="eCBL7U5E57jNzbd9nTni-175" source="eCBL7U5E57jNzbd9nTni-71" target="eCBL7U5E57jNzbd9nTni-87" edge="1">
          <mxGeometry relative="1" as="geometry" />
        </mxCell>
        <mxCell id="eCBL7U5E57jNzbd9nTni-91" style="edgeStyle=orthogonalEdgeStyle;rounded=0;orthogonalLoop=1;jettySize=auto;html=1;" parent="eCBL7U5E57jNzbd9nTni-175" source="eCBL7U5E57jNzbd9nTni-90" target="eCBL7U5E57jNzbd9nTni-30" edge="1">
          <mxGeometry relative="1" as="geometry" />
        </mxCell>
        <mxCell id="eCBL7U5E57jNzbd9nTni-90" value="System" style="html=1;whiteSpace=wrap;fillColor=#008a00;strokeColor=#005700;fontColor=#ffffff;" parent="eCBL7U5E57jNzbd9nTni-175" vertex="1">
          <mxGeometry x="421.75" y="200" width="60" height="40" as="geometry" />
        </mxCell>
        <mxCell id="eCBL7U5E57jNzbd9nTni-222" style="edgeStyle=orthogonalEdgeStyle;rounded=0;orthogonalLoop=1;jettySize=auto;html=1;" parent="eCBL7U5E57jNzbd9nTni-175" source="eCBL7U5E57jNzbd9nTni-221" target="eCBL7U5E57jNzbd9nTni-30" edge="1">
          <mxGeometry relative="1" as="geometry" />
        </mxCell>
        <mxCell id="eCBL7U5E57jNzbd9nTni-221" value="Unbook" style="html=1;whiteSpace=wrap;fillColor=#1ba1e2;strokeColor=#006EAF;fontColor=#ffffff;" parent="eCBL7U5E57jNzbd9nTni-175" vertex="1">
          <mxGeometry x="161.75" y="200" width="60" height="40" as="geometry" />
        </mxCell>
        <mxCell id="eCBL7U5E57jNzbd9nTni-223" style="edgeStyle=orthogonalEdgeStyle;rounded=0;orthogonalLoop=1;jettySize=auto;html=1;exitX=1;exitY=0.75;exitDx=0;exitDy=0;" parent="eCBL7U5E57jNzbd9nTni-175" source="eCBL7U5E57jNzbd9nTni-71" target="eCBL7U5E57jNzbd9nTni-221" edge="1">
          <mxGeometry relative="1" as="geometry" />
        </mxCell>
        <mxCell id="eCBL7U5E57jNzbd9nTni-213" value="" style="swimlane;startSize=0;" parent="1" vertex="1">
          <mxGeometry x="-415" y="-730" width="400" height="320" as="geometry" />
        </mxCell>
        <mxCell id="eCBL7U5E57jNzbd9nTni-57" value="Payment done" style="html=1;whiteSpace=wrap;fillColor=#ffe6cc;strokeColor=#d79b00;" parent="eCBL7U5E57jNzbd9nTni-213" vertex="1">
          <mxGeometry x="50" y="50" width="102.5" height="60" as="geometry" />
        </mxCell>
        <mxCell id="eCBL7U5E57jNzbd9nTni-58" value="Payment failed" style="html=1;whiteSpace=wrap;fillColor=#ffe6cc;strokeColor=#d79b00;" parent="eCBL7U5E57jNzbd9nTni-213" vertex="1">
          <mxGeometry x="50" y="125" width="100" height="60" as="geometry" />
        </mxCell>
        <mxCell id="eCBL7U5E57jNzbd9nTni-59" value="Payment started" style="html=1;whiteSpace=wrap;fillColor=#ffe6cc;strokeColor=#d79b00;" parent="eCBL7U5E57jNzbd9nTni-213" vertex="1">
          <mxGeometry x="246.25" y="245" width="92.5" height="60" as="geometry" />
        </mxCell>
        <mxCell id="eCBL7U5E57jNzbd9nTni-62" value="User" style="html=1;whiteSpace=wrap;fillColor=#a0522d;strokeColor=#6D1F00;fontColor=#ffffff;" parent="eCBL7U5E57jNzbd9nTni-213" vertex="1">
          <mxGeometry x="40" y="255" width="60" height="40" as="geometry" />
        </mxCell>
        <mxCell id="eCBL7U5E57jNzbd9nTni-77" style="edgeStyle=orthogonalEdgeStyle;rounded=0;orthogonalLoop=1;jettySize=auto;html=1;exitX=1;exitY=0.5;exitDx=0;exitDy=0;entryX=0;entryY=0.5;entryDx=0;entryDy=0;" parent="eCBL7U5E57jNzbd9nTni-213" source="eCBL7U5E57jNzbd9nTni-75" target="eCBL7U5E57jNzbd9nTni-59" edge="1">
          <mxGeometry relative="1" as="geometry" />
        </mxCell>
        <mxCell id="eCBL7U5E57jNzbd9nTni-75" value="Pay" style="html=1;whiteSpace=wrap;fillColor=#1ba1e2;strokeColor=#006EAF;fontColor=#ffffff;" parent="eCBL7U5E57jNzbd9nTni-213" vertex="1">
          <mxGeometry x="135" y="255" width="60" height="40" as="geometry" />
        </mxCell>
        <mxCell id="eCBL7U5E57jNzbd9nTni-76" style="edgeStyle=orthogonalEdgeStyle;rounded=0;orthogonalLoop=1;jettySize=auto;html=1;exitX=1;exitY=0.5;exitDx=0;exitDy=0;" parent="eCBL7U5E57jNzbd9nTni-213" source="eCBL7U5E57jNzbd9nTni-62" target="eCBL7U5E57jNzbd9nTni-75" edge="1">
          <mxGeometry relative="1" as="geometry" />
        </mxCell>
        <mxCell id="eCBL7U5E57jNzbd9nTni-110" style="edgeStyle=orthogonalEdgeStyle;rounded=0;orthogonalLoop=1;jettySize=auto;html=1;entryX=1;entryY=0.5;entryDx=0;entryDy=0;" parent="eCBL7U5E57jNzbd9nTni-213" source="eCBL7U5E57jNzbd9nTni-108" target="eCBL7U5E57jNzbd9nTni-57" edge="1">
          <mxGeometry relative="1" as="geometry" />
        </mxCell>
        <mxCell id="eCBL7U5E57jNzbd9nTni-111" style="edgeStyle=orthogonalEdgeStyle;rounded=0;orthogonalLoop=1;jettySize=auto;html=1;entryX=1;entryY=0.5;entryDx=0;entryDy=0;" parent="eCBL7U5E57jNzbd9nTni-213" source="eCBL7U5E57jNzbd9nTni-108" target="eCBL7U5E57jNzbd9nTni-58" edge="1">
          <mxGeometry relative="1" as="geometry" />
        </mxCell>
        <mxCell id="eCBL7U5E57jNzbd9nTni-108" value="Validate" style="html=1;whiteSpace=wrap;fillColor=#1ba1e2;strokeColor=#006EAF;fontColor=#ffffff;" parent="eCBL7U5E57jNzbd9nTni-213" vertex="1">
          <mxGeometry x="200" y="60" width="60" height="40" as="geometry" />
        </mxCell>
        <mxCell id="eCBL7U5E57jNzbd9nTni-113" style="edgeStyle=orthogonalEdgeStyle;rounded=0;orthogonalLoop=1;jettySize=auto;html=1;entryX=1;entryY=0.5;entryDx=0;entryDy=0;" parent="eCBL7U5E57jNzbd9nTni-213" source="eCBL7U5E57jNzbd9nTni-112" target="eCBL7U5E57jNzbd9nTni-108" edge="1">
          <mxGeometry relative="1" as="geometry" />
        </mxCell>
        <mxCell id="eCBL7U5E57jNzbd9nTni-112" value="System" style="html=1;whiteSpace=wrap;fillColor=#008a00;strokeColor=#005700;fontColor=#ffffff;" parent="eCBL7U5E57jNzbd9nTni-213" vertex="1">
          <mxGeometry x="300" y="60" width="60" height="40" as="geometry" />
        </mxCell>
        <mxCell id="eCBL7U5E57jNzbd9nTni-165" value="Payment" style="html=1;whiteSpace=wrap;fillColor=#d80073;strokeColor=#A50040;fontColor=#ffffff;" parent="eCBL7U5E57jNzbd9nTni-213" vertex="1">
          <mxGeometry x="180" y="170" width="100" height="60" as="geometry" />
        </mxCell>
        <mxCell id="eCBL7U5E57jNzbd9nTni-166" value="Validator" style="html=1;whiteSpace=wrap;fillColor=#d80073;strokeColor=#A50040;fontColor=#ffffff;" parent="eCBL7U5E57jNzbd9nTni-213" vertex="1">
          <mxGeometry x="302.5" y="160" width="57.5" height="25" as="geometry" />
        </mxCell>
        <mxCell id="eCBL7U5E57jNzbd9nTni-220" value="PAYMENT SERVICE" style="text;html=1;align=center;verticalAlign=middle;resizable=0;points=[];autosize=1;strokeColor=none;fillColor=none;" parent="eCBL7U5E57jNzbd9nTni-213" vertex="1">
          <mxGeometry x="1.25" y="10" width="140" height="30" as="geometry" />
        </mxCell>
        <mxCell id="eCBL7U5E57jNzbd9nTni-214" value="" style="swimlane;startSize=0;" parent="1" vertex="1">
          <mxGeometry x="-415" y="-970" width="400" height="220" as="geometry" />
        </mxCell>
        <mxCell id="eCBL7U5E57jNzbd9nTni-33" value="Notification sent" style="html=1;whiteSpace=wrap;fillColor=#ffe6cc;strokeColor=#d79b00;" parent="eCBL7U5E57jNzbd9nTni-214" vertex="1">
          <mxGeometry x="32.5" y="120" width="95" height="60" as="geometry" />
        </mxCell>
        <mxCell id="eCBL7U5E57jNzbd9nTni-117" style="edgeStyle=orthogonalEdgeStyle;rounded=0;orthogonalLoop=1;jettySize=auto;html=1;" parent="eCBL7U5E57jNzbd9nTni-214" source="eCBL7U5E57jNzbd9nTni-114" target="eCBL7U5E57jNzbd9nTni-33" edge="1">
          <mxGeometry relative="1" as="geometry" />
        </mxCell>
        <mxCell id="eCBL7U5E57jNzbd9nTni-114" value="Notify" style="html=1;whiteSpace=wrap;fillColor=#1ba1e2;strokeColor=#006EAF;fontColor=#ffffff;" parent="eCBL7U5E57jNzbd9nTni-214" vertex="1">
          <mxGeometry x="177.5" y="130" width="60" height="40" as="geometry" />
        </mxCell>
        <mxCell id="eCBL7U5E57jNzbd9nTni-115" style="edgeStyle=orthogonalEdgeStyle;rounded=0;orthogonalLoop=1;jettySize=auto;html=1;entryX=1;entryY=0.5;entryDx=0;entryDy=0;" parent="eCBL7U5E57jNzbd9nTni-214" source="eCBL7U5E57jNzbd9nTni-116" target="eCBL7U5E57jNzbd9nTni-114" edge="1">
          <mxGeometry relative="1" as="geometry" />
        </mxCell>
        <mxCell id="eCBL7U5E57jNzbd9nTni-116" value="System" style="html=1;whiteSpace=wrap;fillColor=#008a00;strokeColor=#005700;fontColor=#ffffff;" parent="eCBL7U5E57jNzbd9nTni-214" vertex="1">
          <mxGeometry x="287.5" y="130" width="60" height="40" as="geometry" />
        </mxCell>
        <mxCell id="eCBL7U5E57jNzbd9nTni-167" value="Notification" style="html=1;whiteSpace=wrap;fillColor=#d80073;strokeColor=#A50040;fontColor=#ffffff;" parent="eCBL7U5E57jNzbd9nTni-214" vertex="1">
          <mxGeometry x="173.75" y="40" width="100" height="60" as="geometry" />
        </mxCell>
        <mxCell id="eCBL7U5E57jNzbd9nTni-218" value="NOTIFICATION SERVICE" style="text;html=1;align=center;verticalAlign=middle;resizable=0;points=[];autosize=1;strokeColor=none;fillColor=none;" parent="eCBL7U5E57jNzbd9nTni-214" vertex="1">
          <mxGeometry y="15" width="160" height="30" as="geometry" />
        </mxCell>
        <mxCell id="eCBL7U5E57jNzbd9nTni-248" value="" style="swimlane;startSize=0;" parent="1" vertex="1">
          <mxGeometry x="995" y="-970" width="460" height="650" as="geometry" />
        </mxCell>
        <mxCell id="eCBL7U5E57jNzbd9nTni-40" value="Delivery done" style="html=1;whiteSpace=wrap;fillColor=#ffe6cc;strokeColor=#d79b00;" parent="eCBL7U5E57jNzbd9nTni-248" vertex="1">
          <mxGeometry x="132.5" y="565" width="115" height="60" as="geometry" />
        </mxCell>
        <mxCell id="eCBL7U5E57jNzbd9nTni-42" value="Delivery status changed" style="html=1;whiteSpace=wrap;fillColor=#ffe6cc;strokeColor=#d79b00;" parent="eCBL7U5E57jNzbd9nTni-248" vertex="1">
          <mxGeometry x="360" y="370" width="80" height="60" as="geometry" />
        </mxCell>
        <mxCell id="eCBL7U5E57jNzbd9nTni-46" value="Delivery refund" style="html=1;whiteSpace=wrap;fillColor=#ffe6cc;strokeColor=#d79b00;" parent="eCBL7U5E57jNzbd9nTni-248" vertex="1">
          <mxGeometry x="160" y="280" width="80" height="60" as="geometry" />
        </mxCell>
        <mxCell id="eCBL7U5E57jNzbd9nTni-47" value="Delivery failed" style="html=1;whiteSpace=wrap;fillColor=#ffe6cc;strokeColor=#d79b00;" parent="eCBL7U5E57jNzbd9nTni-248" vertex="1">
          <mxGeometry x="10" y="460" width="115" height="60" as="geometry" />
        </mxCell>
        <mxCell id="eCBL7U5E57jNzbd9nTni-51" value="Delivery created" style="html=1;whiteSpace=wrap;fillColor=#ffe6cc;strokeColor=#d79b00;" parent="eCBL7U5E57jNzbd9nTni-248" vertex="1">
          <mxGeometry x="260" y="280" width="80" height="60" as="geometry" />
        </mxCell>
        <mxCell id="eCBL7U5E57jNzbd9nTni-224" value="System" style="html=1;whiteSpace=wrap;fillColor=#008a00;strokeColor=#005700;fontColor=#ffffff;" parent="eCBL7U5E57jNzbd9nTni-248" vertex="1">
          <mxGeometry x="160" y="380" width="60" height="40" as="geometry" />
        </mxCell>
        <mxCell id="eCBL7U5E57jNzbd9nTni-232" style="edgeStyle=orthogonalEdgeStyle;rounded=0;orthogonalLoop=1;jettySize=auto;html=1;exitX=1;exitY=0.5;exitDx=0;exitDy=0;entryX=0;entryY=0.5;entryDx=0;entryDy=0;" parent="eCBL7U5E57jNzbd9nTni-248" source="eCBL7U5E57jNzbd9nTni-230" target="eCBL7U5E57jNzbd9nTni-42" edge="1">
          <mxGeometry relative="1" as="geometry" />
        </mxCell>
        <mxCell id="eCBL7U5E57jNzbd9nTni-230" value="Change status" style="html=1;whiteSpace=wrap;fillColor=#1ba1e2;strokeColor=#006EAF;fontColor=#ffffff;" parent="eCBL7U5E57jNzbd9nTni-248" vertex="1">
          <mxGeometry x="260" y="380" width="60" height="40" as="geometry" />
        </mxCell>
        <mxCell id="eCBL7U5E57jNzbd9nTni-231" style="edgeStyle=orthogonalEdgeStyle;rounded=0;orthogonalLoop=1;jettySize=auto;html=1;entryX=0;entryY=0.5;entryDx=0;entryDy=0;" parent="eCBL7U5E57jNzbd9nTni-248" source="eCBL7U5E57jNzbd9nTni-224" target="eCBL7U5E57jNzbd9nTni-230" edge="1">
          <mxGeometry relative="1" as="geometry" />
        </mxCell>
        <mxCell id="eCBL7U5E57jNzbd9nTni-235" style="edgeStyle=orthogonalEdgeStyle;rounded=0;orthogonalLoop=1;jettySize=auto;html=1;entryX=0.5;entryY=0;entryDx=0;entryDy=0;" parent="eCBL7U5E57jNzbd9nTni-248" source="eCBL7U5E57jNzbd9nTni-233" target="eCBL7U5E57jNzbd9nTni-40" edge="1">
          <mxGeometry relative="1" as="geometry" />
        </mxCell>
        <mxCell id="eCBL7U5E57jNzbd9nTni-238" style="edgeStyle=orthogonalEdgeStyle;rounded=0;orthogonalLoop=1;jettySize=auto;html=1;" parent="eCBL7U5E57jNzbd9nTni-248" source="eCBL7U5E57jNzbd9nTni-233" target="eCBL7U5E57jNzbd9nTni-47" edge="1">
          <mxGeometry relative="1" as="geometry" />
        </mxCell>
        <mxCell id="eCBL7U5E57jNzbd9nTni-233" value="Close" style="html=1;whiteSpace=wrap;fillColor=#1ba1e2;strokeColor=#006EAF;fontColor=#ffffff;" parent="eCBL7U5E57jNzbd9nTni-248" vertex="1">
          <mxGeometry x="160" y="470" width="60" height="40" as="geometry" />
        </mxCell>
        <mxCell id="eCBL7U5E57jNzbd9nTni-234" style="edgeStyle=orthogonalEdgeStyle;rounded=0;orthogonalLoop=1;jettySize=auto;html=1;entryX=0.5;entryY=0;entryDx=0;entryDy=0;" parent="eCBL7U5E57jNzbd9nTni-248" source="eCBL7U5E57jNzbd9nTni-224" target="eCBL7U5E57jNzbd9nTni-233" edge="1">
          <mxGeometry relative="1" as="geometry" />
        </mxCell>
        <mxCell id="eCBL7U5E57jNzbd9nTni-237" style="edgeStyle=orthogonalEdgeStyle;rounded=0;orthogonalLoop=1;jettySize=auto;html=1;" parent="eCBL7U5E57jNzbd9nTni-248" source="eCBL7U5E57jNzbd9nTni-236" target="eCBL7U5E57jNzbd9nTni-46" edge="1">
          <mxGeometry relative="1" as="geometry" />
        </mxCell>
        <mxCell id="eCBL7U5E57jNzbd9nTni-236" value="Refund" style="html=1;whiteSpace=wrap;fillColor=#1ba1e2;strokeColor=#006EAF;fontColor=#ffffff;" parent="eCBL7U5E57jNzbd9nTni-248" vertex="1">
          <mxGeometry x="170" y="190" width="60" height="40" as="geometry" />
        </mxCell>
        <mxCell id="eCBL7U5E57jNzbd9nTni-244" style="edgeStyle=orthogonalEdgeStyle;rounded=0;orthogonalLoop=1;jettySize=auto;html=1;entryX=0.5;entryY=0;entryDx=0;entryDy=0;" parent="eCBL7U5E57jNzbd9nTni-248" source="eCBL7U5E57jNzbd9nTni-243" target="eCBL7U5E57jNzbd9nTni-51" edge="1">
          <mxGeometry relative="1" as="geometry" />
        </mxCell>
        <mxCell id="eCBL7U5E57jNzbd9nTni-243" value="Create" style="html=1;whiteSpace=wrap;fillColor=#1ba1e2;strokeColor=#006EAF;fontColor=#ffffff;" parent="eCBL7U5E57jNzbd9nTni-248" vertex="1">
          <mxGeometry x="270" y="190" width="60" height="40" as="geometry" />
        </mxCell>
        <mxCell id="eCBL7U5E57jNzbd9nTni-251" value="DELIVERY SYSTEM" style="text;html=1;align=center;verticalAlign=middle;resizable=0;points=[];autosize=1;strokeColor=none;fillColor=none;" parent="eCBL7U5E57jNzbd9nTni-248" vertex="1">
          <mxGeometry x="10" y="10" width="140" height="30" as="geometry" />
        </mxCell>
        <mxCell id="eCBL7U5E57jNzbd9nTni-252" value="DELIVERY" style="html=1;whiteSpace=wrap;fillColor=#d80073;strokeColor=#A50040;fontColor=#ffffff;" parent="eCBL7U5E57jNzbd9nTni-248" vertex="1">
          <mxGeometry x="30" y="180" width="80" height="50" as="geometry" />
        </mxCell>
        <mxCell id="eCBL7U5E57jNzbd9nTni-253" value="Item" style="html=1;whiteSpace=wrap;fillColor=#d80073;strokeColor=#A50040;fontColor=#ffffff;" parent="eCBL7U5E57jNzbd9nTni-248" vertex="1">
          <mxGeometry x="30" y="250" width="40" height="20" as="geometry" />
        </mxCell>
        <mxCell id="eCBL7U5E57jNzbd9nTni-257" value="Location" style="html=1;whiteSpace=wrap;fillColor=#d80073;strokeColor=#A50040;fontColor=#ffffff;" parent="eCBL7U5E57jNzbd9nTni-248" vertex="1">
          <mxGeometry x="30" y="290" width="90" height="30" as="geometry" />
        </mxCell>
        <mxCell id="eCBL7U5E57jNzbd9nTni-261" style="edgeStyle=orthogonalEdgeStyle;rounded=0;orthogonalLoop=1;jettySize=auto;html=1;entryX=0.5;entryY=0;entryDx=0;entryDy=0;exitX=0.25;exitY=1;exitDx=0;exitDy=0;" parent="eCBL7U5E57jNzbd9nTni-248" source="eCBL7U5E57jNzbd9nTni-260" target="eCBL7U5E57jNzbd9nTni-236" edge="1">
          <mxGeometry relative="1" as="geometry" />
        </mxCell>
        <mxCell id="eCBL7U5E57jNzbd9nTni-262" style="edgeStyle=orthogonalEdgeStyle;rounded=0;orthogonalLoop=1;jettySize=auto;html=1;exitX=0.75;exitY=1;exitDx=0;exitDy=0;" parent="eCBL7U5E57jNzbd9nTni-248" source="eCBL7U5E57jNzbd9nTni-260" target="eCBL7U5E57jNzbd9nTni-243" edge="1">
          <mxGeometry relative="1" as="geometry" />
        </mxCell>
        <mxCell id="eCBL7U5E57jNzbd9nTni-260" value="System" style="html=1;whiteSpace=wrap;fillColor=#008a00;strokeColor=#005700;fontColor=#ffffff;" parent="eCBL7U5E57jNzbd9nTni-248" vertex="1">
          <mxGeometry x="220" y="35" width="60" height="40" as="geometry" />
        </mxCell>
        <mxCell id="eCBL7U5E57jNzbd9nTni-267" value="User" style="ellipse;whiteSpace=wrap;html=1;fillColor=#FF66B3;fontColor=#ffffff;strokeColor=#A50040;shadow=0;" parent="1" vertex="1">
          <mxGeometry x="1735" y="-690" width="140" height="140" as="geometry" />
        </mxCell>
        <mxCell id="eCBL7U5E57jNzbd9nTni-269" value="Money" style="ellipse;whiteSpace=wrap;html=1;fillColor=#003333;fontColor=#ffffff;strokeColor=#005700;" parent="1" vertex="1">
          <mxGeometry x="1955" y="-750" width="50" height="50" as="geometry" />
        </mxCell>
        <mxCell id="eCBL7U5E57jNzbd9nTni-270" value="Wallet" style="ellipse;whiteSpace=wrap;html=1;fillColor=#0066CC;fontColor=#ffffff;strokeColor=#006EAF;" parent="1" vertex="1">
          <mxGeometry x="1855" y="-750" width="80" height="80" as="geometry" />
        </mxCell>
        <mxCell id="eCBL7U5E57jNzbd9nTni-274" value="Location" style="ellipse;whiteSpace=wrap;html=1;fillColor=#0066CC;fontColor=#ffffff;strokeColor=#006EAF;" parent="1" vertex="1">
          <mxGeometry x="1745" y="-780" width="80" height="80" as="geometry" />
        </mxCell>
        <mxCell id="eCBL7U5E57jNzbd9nTni-275" value="User root" style="ellipse;whiteSpace=wrap;html=1;fillColor=#0066CC;fontColor=#ffffff;strokeColor=#006EAF;" parent="1" vertex="1">
          <mxGeometry x="1875" y="-600" width="80" height="80" as="geometry" />
        </mxCell>
        <mxCell id="eCBL7U5E57jNzbd9nTni-276" value="First name" style="ellipse;whiteSpace=wrap;html=1;fillColor=#003333;fontColor=#ffffff;strokeColor=#005700;" parent="1" vertex="1">
          <mxGeometry x="1955" y="-620" width="50" height="50" as="geometry" />
        </mxCell>
        <mxCell id="eCBL7U5E57jNzbd9nTni-277" value="Last name" style="ellipse;whiteSpace=wrap;html=1;fillColor=#003333;fontColor=#ffffff;strokeColor=#005700;" parent="1" vertex="1">
          <mxGeometry x="1955" y="-550" width="50" height="50" as="geometry" />
        </mxCell>
        <mxCell id="eCBL7U5E57jNzbd9nTni-278" value="Age" style="ellipse;whiteSpace=wrap;html=1;fillColor=#003333;fontColor=#ffffff;strokeColor=#005700;" parent="1" vertex="1">
          <mxGeometry x="1895" y="-510" width="40" height="40" as="geometry" />
        </mxCell>
        <mxCell id="eCBL7U5E57jNzbd9nTni-279" value="Gender" style="ellipse;whiteSpace=wrap;html=1;fillColor=#003333;fontColor=#ffffff;strokeColor=#005700;" parent="1" vertex="1">
          <mxGeometry x="1835" y="-540" width="50" height="50" as="geometry" />
        </mxCell>
        <mxCell id="eCBL7U5E57jNzbd9nTni-281" value="Address" style="ellipse;whiteSpace=wrap;html=1;fillColor=#003333;fontColor=#ffffff;strokeColor=#005700;" parent="1" vertex="1">
          <mxGeometry x="1710" y="-830" width="50" height="50" as="geometry" />
        </mxCell>
        <mxCell id="eCBL7U5E57jNzbd9nTni-282" value="Id" style="ellipse;whiteSpace=wrap;html=1;fillColor=#003333;fontColor=#ffffff;strokeColor=#005700;" parent="1" vertex="1">
          <mxGeometry x="1925" y="-635" width="30" height="30" as="geometry" />
        </mxCell>
        <mxCell id="eCBL7U5E57jNzbd9nTni-283" value="Payment" style="ellipse;whiteSpace=wrap;html=1;fillColor=#FF66B3;fontColor=#ffffff;strokeColor=#A50040;shadow=0;" parent="1" vertex="1">
          <mxGeometry x="2325" y="-920" width="100" height="100" as="geometry" />
        </mxCell>
        <mxCell id="eCBL7U5E57jNzbd9nTni-284" value="Warehouse" style="ellipse;whiteSpace=wrap;html=1;fillColor=#FF66B3;fontColor=#ffffff;strokeColor=#A50040;shadow=0;" parent="1" vertex="1">
          <mxGeometry x="1995" y="-400" width="140" height="140" as="geometry" />
        </mxCell>
        <mxCell id="eCBL7U5E57jNzbd9nTni-285" value="Order" style="ellipse;whiteSpace=wrap;html=1;fillColor=#FF66B3;fontColor=#ffffff;strokeColor=#A50040;shadow=0;" parent="1" vertex="1">
          <mxGeometry x="2175" y="-660" width="240" height="240" as="geometry" />
        </mxCell>
        <mxCell id="eCBL7U5E57jNzbd9nTni-288" value="Products" style="ellipse;whiteSpace=wrap;html=1;fillColor=#0066CC;fontColor=#ffffff;strokeColor=#006EAF;" parent="1" vertex="1">
          <mxGeometry x="2225" y="-750" width="80" height="80" as="geometry" />
        </mxCell>
        <mxCell id="eCBL7U5E57jNzbd9nTni-289" value="User" style="ellipse;whiteSpace=wrap;html=1;fillColor=#0066CC;fontColor=#ffffff;strokeColor=#006EAF;" parent="1" vertex="1">
          <mxGeometry x="2135" y="-710" width="80" height="80" as="geometry" />
        </mxCell>
        <mxCell id="eCBL7U5E57jNzbd9nTni-290" value="Products" style="ellipse;whiteSpace=wrap;html=1;fillColor=#0066CC;fontColor=#ffffff;strokeColor=#006EAF;" parent="1" vertex="1">
          <mxGeometry x="1965" y="-270" width="80" height="80" as="geometry" />
        </mxCell>
        <mxCell id="eCBL7U5E57jNzbd9nTni-291" value="Id" style="ellipse;whiteSpace=wrap;html=1;fillColor=#003333;fontColor=#ffffff;strokeColor=#005700;" parent="1" vertex="1">
          <mxGeometry x="2045" y="-230" width="50" height="50" as="geometry" />
        </mxCell>
        <mxCell id="eCBL7U5E57jNzbd9nTni-292" value="Display name" style="ellipse;whiteSpace=wrap;html=1;fillColor=#003333;fontColor=#ffffff;strokeColor=#005700;" parent="1" vertex="1">
          <mxGeometry x="2015" y="-180" width="50" height="50" as="geometry" />
        </mxCell>
        <mxCell id="eCBL7U5E57jNzbd9nTni-293" value="Amount" style="ellipse;whiteSpace=wrap;html=1;fillColor=#003333;fontColor=#ffffff;strokeColor=#005700;" parent="1" vertex="1">
          <mxGeometry x="1935" y="-320" width="50" height="50" as="geometry" />
        </mxCell>
        <mxCell id="eCBL7U5E57jNzbd9nTni-294" value="Id" style="ellipse;whiteSpace=wrap;html=1;fillColor=#003333;fontColor=#ffffff;strokeColor=#005700;" parent="1" vertex="1">
          <mxGeometry x="2125" y="-740" width="30" height="30" as="geometry" />
        </mxCell>
        <mxCell id="eCBL7U5E57jNzbd9nTni-295" value="Id" style="ellipse;whiteSpace=wrap;html=1;fillColor=#003333;fontColor=#ffffff;strokeColor=#005700;" parent="1" vertex="1">
          <mxGeometry x="2305" y="-755" width="30" height="30" as="geometry" />
        </mxCell>
        <mxCell id="eCBL7U5E57jNzbd9nTni-296" value="Status" style="ellipse;whiteSpace=wrap;html=1;fillColor=#0066CC;fontColor=#ffffff;strokeColor=#006EAF;" parent="1" vertex="1">
          <mxGeometry x="2280" y="-410" width="80" height="80" as="geometry" />
        </mxCell>
        <mxCell id="eCBL7U5E57jNzbd9nTni-297" value="OrderService" style="ellipse;whiteSpace=wrap;html=1;fillColor=#0066CC;fontColor=#ffffff;strokeColor=#006EAF;" parent="1" vertex="1">
          <mxGeometry x="2395" y="-700" width="80" height="80" as="geometry" />
        </mxCell>
        <mxCell id="eCBL7U5E57jNzbd9nTni-298" value="OrderValidator" style="ellipse;whiteSpace=wrap;html=1;fillColor=#0066CC;fontColor=#ffffff;strokeColor=#006EAF;" parent="1" vertex="1">
          <mxGeometry x="2425" y="-620" width="105" height="105" as="geometry" />
        </mxCell>
        <mxCell id="eCBL7U5E57jNzbd9nTni-301" value="User" style="ellipse;whiteSpace=wrap;html=1;fillColor=#0066CC;fontColor=#ffffff;strokeColor=#006EAF;" parent="1" vertex="1">
          <mxGeometry x="2275" y="-990" width="80" height="80" as="geometry" />
        </mxCell>
        <mxCell id="eCBL7U5E57jNzbd9nTni-302" value="Money" style="ellipse;whiteSpace=wrap;html=1;fillColor=#0066CC;fontColor=#ffffff;strokeColor=#006EAF;" parent="1" vertex="1">
          <mxGeometry x="2365" y="-1000" width="80" height="80" as="geometry" />
        </mxCell>
        <mxCell id="eCBL7U5E57jNzbd9nTni-303" value="Money" style="ellipse;whiteSpace=wrap;html=1;fillColor=#003333;fontColor=#ffffff;strokeColor=#005700;" parent="1" vertex="1">
          <mxGeometry x="2455" y="-990" width="50" height="50" as="geometry" />
        </mxCell>
        <mxCell id="eCBL7U5E57jNzbd9nTni-304" value="Id" style="ellipse;whiteSpace=wrap;html=1;fillColor=#003333;fontColor=#ffffff;strokeColor=#005700;" parent="1" vertex="1">
          <mxGeometry x="2250" y="-1010" width="30" height="30" as="geometry" />
        </mxCell>
        <mxCell id="eCBL7U5E57jNzbd9nTni-305" value="Id" style="ellipse;whiteSpace=wrap;html=1;fillColor=#003333;fontColor=#ffffff;strokeColor=#005700;" parent="1" vertex="1">
          <mxGeometry x="2360" y="-350" width="30" height="30" as="geometry" />
        </mxCell>
        <mxCell id="2-OzAHWxCXo9uA6LsoVj-1" value="User" style="swimlane;fontStyle=0;childLayout=stackLayout;horizontal=1;startSize=26;fillColor=none;horizontalStack=0;resizeParent=1;resizeParentMax=0;resizeLast=0;collapsible=1;marginBottom=0;whiteSpace=wrap;html=1;" vertex="1" parent="1">
          <mxGeometry x="3377.1399999999994" y="-201.32" width="140" height="52" as="geometry" />
        </mxCell>
        <mxCell id="2-OzAHWxCXo9uA6LsoVj-2" value="+ id: UUID" style="text;strokeColor=none;fillColor=none;align=left;verticalAlign=top;spacingLeft=4;spacingRight=4;overflow=hidden;rotatable=0;points=[[0,0.5],[1,0.5]];portConstraint=eastwest;whiteSpace=wrap;html=1;" vertex="1" parent="2-OzAHWxCXo9uA6LsoVj-1">
          <mxGeometry y="26" width="140" height="26" as="geometry" />
        </mxCell>
        <mxCell id="2-OzAHWxCXo9uA6LsoVj-6" value="Order" style="swimlane;fontStyle=0;childLayout=stackLayout;horizontal=1;startSize=26;fillColor=none;horizontalStack=0;resizeParent=1;resizeParentMax=0;resizeLast=0;collapsible=1;marginBottom=0;whiteSpace=wrap;html=1;" vertex="1" parent="1">
          <mxGeometry x="2970" y="-227.32" width="170" height="130" as="geometry" />
        </mxCell>
        <mxCell id="2-OzAHWxCXo9uA6LsoVj-16" value="+ orderId: UUID" style="text;strokeColor=none;fillColor=none;align=left;verticalAlign=top;spacingLeft=4;spacingRight=4;overflow=hidden;rotatable=0;points=[[0,0.5],[1,0.5]];portConstraint=eastwest;whiteSpace=wrap;html=1;" vertex="1" parent="2-OzAHWxCXo9uA6LsoVj-6">
          <mxGeometry y="26" width="170" height="26" as="geometry" />
        </mxCell>
        <mxCell id="2-OzAHWxCXo9uA6LsoVj-7" value="+ user: User" style="text;strokeColor=none;fillColor=none;align=left;verticalAlign=top;spacingLeft=4;spacingRight=4;overflow=hidden;rotatable=0;points=[[0,0.5],[1,0.5]];portConstraint=eastwest;whiteSpace=wrap;html=1;" vertex="1" parent="2-OzAHWxCXo9uA6LsoVj-6">
          <mxGeometry y="52" width="170" height="26" as="geometry" />
        </mxCell>
        <mxCell id="2-OzAHWxCXo9uA6LsoVj-8" value="+ products: List&amp;lt;Product&amp;gt;" style="text;strokeColor=none;fillColor=none;align=left;verticalAlign=top;spacingLeft=4;spacingRight=4;overflow=hidden;rotatable=0;points=[[0,0.5],[1,0.5]];portConstraint=eastwest;whiteSpace=wrap;html=1;" vertex="1" parent="2-OzAHWxCXo9uA6LsoVj-6">
          <mxGeometry y="78" width="170" height="26" as="geometry" />
        </mxCell>
        <mxCell id="2-OzAHWxCXo9uA6LsoVj-20" value="+ status: Status" style="text;strokeColor=none;fillColor=none;align=left;verticalAlign=top;spacingLeft=4;spacingRight=4;overflow=hidden;rotatable=0;points=[[0,0.5],[1,0.5]];portConstraint=eastwest;whiteSpace=wrap;html=1;" vertex="1" parent="2-OzAHWxCXo9uA6LsoVj-6">
          <mxGeometry y="104" width="170" height="26" as="geometry" />
        </mxCell>
        <mxCell id="2-OzAHWxCXo9uA6LsoVj-9" style="edgeStyle=orthogonalEdgeStyle;rounded=0;orthogonalLoop=1;jettySize=auto;html=1;entryX=1;entryY=0.5;entryDx=0;entryDy=0;" edge="1" parent="1" source="2-OzAHWxCXo9uA6LsoVj-2" target="2-OzAHWxCXo9uA6LsoVj-7">
          <mxGeometry relative="1" as="geometry" />
        </mxCell>
        <mxCell id="2-OzAHWxCXo9uA6LsoVj-33" value="1" style="edgeLabel;html=1;align=center;verticalAlign=middle;resizable=0;points=[];" vertex="1" connectable="0" parent="2-OzAHWxCXo9uA6LsoVj-9">
          <mxGeometry x="-0.7556" y="-1" relative="1" as="geometry">
            <mxPoint as="offset" />
          </mxGeometry>
        </mxCell>
        <mxCell id="2-OzAHWxCXo9uA6LsoVj-34" value="1" style="edgeLabel;html=1;align=center;verticalAlign=middle;resizable=0;points=[];" vertex="1" connectable="0" parent="2-OzAHWxCXo9uA6LsoVj-9">
          <mxGeometry x="0.6556" relative="1" as="geometry">
            <mxPoint as="offset" />
          </mxGeometry>
        </mxCell>
        <mxCell id="2-OzAHWxCXo9uA6LsoVj-14" value="Product" style="swimlane;fontStyle=0;childLayout=stackLayout;horizontal=1;startSize=26;fillColor=none;horizontalStack=0;resizeParent=1;resizeParentMax=0;resizeLast=0;collapsible=1;marginBottom=0;whiteSpace=wrap;html=1;" vertex="1" parent="1">
          <mxGeometry x="3377.1399999999994" y="-70" width="140" height="52" as="geometry" />
        </mxCell>
        <mxCell id="2-OzAHWxCXo9uA6LsoVj-15" value="+ id: UUID" style="text;strokeColor=none;fillColor=none;align=left;verticalAlign=top;spacingLeft=4;spacingRight=4;overflow=hidden;rotatable=0;points=[[0,0.5],[1,0.5]];portConstraint=eastwest;whiteSpace=wrap;html=1;" vertex="1" parent="2-OzAHWxCXo9uA6LsoVj-14">
          <mxGeometry y="26" width="140" height="26" as="geometry" />
        </mxCell>
        <mxCell id="2-OzAHWxCXo9uA6LsoVj-17" style="rounded=0;orthogonalLoop=1;jettySize=auto;html=1;entryX=1;entryY=0.5;entryDx=0;entryDy=0;exitX=0;exitY=0.25;exitDx=0;exitDy=0;" edge="1" parent="1" source="2-OzAHWxCXo9uA6LsoVj-14" target="2-OzAHWxCXo9uA6LsoVj-8">
          <mxGeometry relative="1" as="geometry" />
        </mxCell>
        <mxCell id="2-OzAHWxCXo9uA6LsoVj-18" value="1" style="edgeLabel;html=1;align=center;verticalAlign=middle;resizable=0;points=[];" vertex="1" connectable="0" parent="2-OzAHWxCXo9uA6LsoVj-17">
          <mxGeometry x="-0.9172" y="1" relative="1" as="geometry">
            <mxPoint as="offset" />
          </mxGeometry>
        </mxCell>
        <mxCell id="2-OzAHWxCXo9uA6LsoVj-19" value="1..*" style="edgeLabel;html=1;align=center;verticalAlign=middle;resizable=0;points=[];" vertex="1" connectable="0" parent="2-OzAHWxCXo9uA6LsoVj-17">
          <mxGeometry x="0.8388" y="1" relative="1" as="geometry">
            <mxPoint as="offset" />
          </mxGeometry>
        </mxCell>
        <mxCell id="2-OzAHWxCXo9uA6LsoVj-21" value="&amp;lt;&amp;lt;Enum&amp;gt;&amp;gt;&lt;br&gt;Status" style="swimlane;fontStyle=0;childLayout=stackLayout;horizontal=1;startSize=26;fillColor=none;horizontalStack=0;resizeParent=1;resizeParentMax=0;resizeLast=0;collapsible=1;marginBottom=0;whiteSpace=wrap;html=1;" vertex="1" parent="1">
          <mxGeometry x="3100" y="-70" width="140" height="52" as="geometry" />
        </mxCell>
        <mxCell id="2-OzAHWxCXo9uA6LsoVj-22" value="+ status: String" style="text;strokeColor=none;fillColor=none;align=left;verticalAlign=top;spacingLeft=4;spacingRight=4;overflow=hidden;rotatable=0;points=[[0,0.5],[1,0.5]];portConstraint=eastwest;whiteSpace=wrap;html=1;" vertex="1" parent="2-OzAHWxCXo9uA6LsoVj-21">
          <mxGeometry y="26" width="140" height="26" as="geometry" />
        </mxCell>
        <mxCell id="2-OzAHWxCXo9uA6LsoVj-23" style="edgeStyle=orthogonalEdgeStyle;rounded=0;orthogonalLoop=1;jettySize=auto;html=1;entryX=0.239;entryY=0.993;entryDx=0;entryDy=0;entryPerimeter=0;" edge="1" parent="1" source="2-OzAHWxCXo9uA6LsoVj-22" target="2-OzAHWxCXo9uA6LsoVj-20">
          <mxGeometry relative="1" as="geometry" />
        </mxCell>
        <mxCell id="2-OzAHWxCXo9uA6LsoVj-24" value="1" style="edgeLabel;html=1;align=center;verticalAlign=middle;resizable=0;points=[];" vertex="1" connectable="0" parent="2-OzAHWxCXo9uA6LsoVj-23">
          <mxGeometry x="0.7327" y="-2" relative="1" as="geometry">
            <mxPoint as="offset" />
          </mxGeometry>
        </mxCell>
        <mxCell id="2-OzAHWxCXo9uA6LsoVj-25" value="1" style="edgeLabel;html=1;align=center;verticalAlign=middle;resizable=0;points=[];" vertex="1" connectable="0" parent="2-OzAHWxCXo9uA6LsoVj-23">
          <mxGeometry x="-0.8157" relative="1" as="geometry">
            <mxPoint as="offset" />
          </mxGeometry>
        </mxCell>
        <mxCell id="2-OzAHWxCXo9uA6LsoVj-32" value="&lt;p style=&quot;margin:0px;margin-top:4px;text-align:center;&quot;&gt;&lt;b&gt;OrderService&lt;/b&gt;&lt;/p&gt;&lt;hr size=&quot;1&quot;&gt;&lt;p style=&quot;margin:0px;margin-left:4px;&quot;&gt;- orderValidator: OrderValidator&lt;/p&gt;&lt;p style=&quot;margin:0px;margin-left:4px;&quot;&gt;- eventHandler: OrderEventHandlerOutputPort&amp;nbsp;&lt;/p&gt;&lt;p style=&quot;margin:0px;margin-left:4px;&quot;&gt;- orderRepository: OrderRepository&lt;/p&gt;&lt;p style=&quot;margin:0px;margin-left:4px;&quot;&gt;- userInfoService: UserInfoOutputPort&lt;/p&gt;&lt;hr size=&quot;1&quot;&gt;&lt;p style=&quot;margin:0px;margin-left:4px;&quot;&gt;&lt;span style=&quot;background-color: initial;&quot;&gt;+ createOrder(order: Order): Unit&lt;/span&gt;&lt;br&gt;&lt;/p&gt;&lt;p style=&quot;margin:0px;margin-left:4px;&quot;&gt;+ discardOrder(order: Order): Unit&lt;span style=&quot;background-color: initial;&quot;&gt;&lt;br&gt;&lt;/span&gt;&lt;/p&gt;&lt;p style=&quot;margin:0px;margin-left:4px;&quot;&gt;+ purchaseOrder(order: Order): Boolean&lt;br&gt;&lt;/p&gt;&lt;p style=&quot;margin:0px;margin-left:4px;&quot;&gt;- getUserInfo(user: User): UserInfo&lt;/p&gt;&lt;p style=&quot;margin:0px;margin-left:4px;&quot;&gt;- validateOrder(order: Order): Boolean&lt;br&gt;&lt;/p&gt;" style="verticalAlign=top;align=left;overflow=fill;fontSize=12;fontFamily=Helvetica;html=1;whiteSpace=wrap;movable=1;resizable=1;rotatable=1;deletable=1;editable=1;locked=0;connectable=1;" vertex="1" parent="1">
          <mxGeometry x="3300" y="-632.34" width="290" height="210" as="geometry" />
        </mxCell>
        <mxCell id="2-OzAHWxCXo9uA6LsoVj-35" value="" style="endArrow=none;html=1;rounded=0;exitX=0.5;exitY=0;exitDx=0;exitDy=0;entryX=0.5;entryY=1;entryDx=0;entryDy=0;edgeStyle=orthogonalEdgeStyle;" edge="1" parent="1" source="2-OzAHWxCXo9uA6LsoVj-6" target="2-OzAHWxCXo9uA6LsoVj-42">
          <mxGeometry width="50" height="50" relative="1" as="geometry">
            <mxPoint x="3380" y="-442.5" as="sourcePoint" />
            <mxPoint x="3430" y="-492.5" as="targetPoint" />
          </mxGeometry>
        </mxCell>
        <mxCell id="2-OzAHWxCXo9uA6LsoVj-36" value="asks" style="edgeLabel;html=1;align=center;verticalAlign=middle;resizable=0;points=[];" vertex="1" connectable="0" parent="2-OzAHWxCXo9uA6LsoVj-35">
          <mxGeometry x="0.0175" y="-1" relative="1" as="geometry">
            <mxPoint as="offset" />
          </mxGeometry>
        </mxCell>
        <mxCell id="2-OzAHWxCXo9uA6LsoVj-48" style="rounded=0;orthogonalLoop=1;jettySize=auto;html=1;entryX=0.003;entryY=0.323;entryDx=0;entryDy=0;entryPerimeter=0;exitX=1;exitY=0.5;exitDx=0;exitDy=0;" edge="1" parent="1" source="2-OzAHWxCXo9uA6LsoVj-42" target="2-OzAHWxCXo9uA6LsoVj-32">
          <mxGeometry relative="1" as="geometry" />
        </mxCell>
        <mxCell id="2-OzAHWxCXo9uA6LsoVj-49" value="1" style="edgeLabel;html=1;align=center;verticalAlign=middle;resizable=0;points=[];" vertex="1" connectable="0" parent="2-OzAHWxCXo9uA6LsoVj-48">
          <mxGeometry x="-0.8897" y="-2" relative="1" as="geometry">
            <mxPoint as="offset" />
          </mxGeometry>
        </mxCell>
        <mxCell id="2-OzAHWxCXo9uA6LsoVj-50" value="1" style="edgeLabel;html=1;align=center;verticalAlign=middle;resizable=0;points=[];" vertex="1" connectable="0" parent="2-OzAHWxCXo9uA6LsoVj-48">
          <mxGeometry x="0.8626" y="-1" relative="1" as="geometry">
            <mxPoint as="offset" />
          </mxGeometry>
        </mxCell>
        <mxCell id="2-OzAHWxCXo9uA6LsoVj-42" value="&lt;p style=&quot;margin:0px;margin-top:4px;text-align:center;&quot;&gt;&lt;b&gt;OrderValidator&lt;/b&gt;&lt;/p&gt;&lt;hr size=&quot;1&quot;&gt;&lt;p style=&quot;margin:0px;margin-left:4px;&quot;&gt;&lt;/p&gt;&lt;p style=&quot;margin:0px;margin-left:4px;&quot;&gt;+ process(order: Order): Boolean&lt;/p&gt;" style="verticalAlign=top;align=left;overflow=fill;fontSize=12;fontFamily=Helvetica;html=1;whiteSpace=wrap;" vertex="1" parent="1">
          <mxGeometry x="2950" y="-519.9" width="220" height="96.25" as="geometry" />
        </mxCell>
        <mxCell id="2-OzAHWxCXo9uA6LsoVj-47" style="edgeStyle=orthogonalEdgeStyle;rounded=0;orthogonalLoop=1;jettySize=auto;html=1;exitX=0.5;exitY=1;exitDx=0;exitDy=0;" edge="1" parent="1" source="2-OzAHWxCXo9uA6LsoVj-42" target="2-OzAHWxCXo9uA6LsoVj-42">
          <mxGeometry relative="1" as="geometry" />
        </mxCell>
        <mxCell id="2-OzAHWxCXo9uA6LsoVj-111" style="rounded=0;orthogonalLoop=1;jettySize=auto;html=1;entryX=0.5;entryY=0;entryDx=0;entryDy=0;fontFamily=Helvetica;fontSize=12;fontColor=default;" edge="1" parent="1" source="2-OzAHWxCXo9uA6LsoVj-54" target="2-OzAHWxCXo9uA6LsoVj-32">
          <mxGeometry relative="1" as="geometry" />
        </mxCell>
        <mxCell id="2-OzAHWxCXo9uA6LsoVj-113" value="uses" style="edgeLabel;html=1;align=center;verticalAlign=middle;resizable=0;points=[];fontSize=12;fontFamily=Helvetica;fontColor=default;" vertex="1" connectable="0" parent="2-OzAHWxCXo9uA6LsoVj-111">
          <mxGeometry x="-0.0161" relative="1" as="geometry">
            <mxPoint as="offset" />
          </mxGeometry>
        </mxCell>
        <mxCell id="2-OzAHWxCXo9uA6LsoVj-54" value="&lt;b style=&quot;border-color: var(--border-color);&quot;&gt;&amp;lt;&amp;lt;interface&amp;gt;&amp;gt;&lt;/b&gt;&lt;br&gt;OrderControllerInputPort&lt;br&gt;" style="swimlane;fontStyle=0;childLayout=stackLayout;horizontal=1;startSize=40;fillColor=none;horizontalStack=0;resizeParent=1;resizeParentMax=0;resizeLast=0;collapsible=1;marginBottom=0;whiteSpace=wrap;html=1;" vertex="1" parent="1">
          <mxGeometry x="3450" y="-1070" width="310" height="150" as="geometry">
            <mxRectangle x="3635" y="-884" width="120" height="30" as="alternateBounds" />
          </mxGeometry>
        </mxCell>
        <mxCell id="2-OzAHWxCXo9uA6LsoVj-55" value="+ create(order: Order): Unit" style="text;strokeColor=none;fillColor=none;align=left;verticalAlign=top;spacingLeft=4;spacingRight=4;overflow=hidden;rotatable=0;points=[[0,0.5],[1,0.5]];portConstraint=eastwest;whiteSpace=wrap;html=1;" vertex="1" parent="2-OzAHWxCXo9uA6LsoVj-54">
          <mxGeometry y="40" width="310" height="26" as="geometry" />
        </mxCell>
        <mxCell id="2-OzAHWxCXo9uA6LsoVj-56" value="+ discard(order: Order): Unit" style="text;strokeColor=none;fillColor=none;align=left;verticalAlign=top;spacingLeft=4;spacingRight=4;overflow=hidden;rotatable=0;points=[[0,0.5],[1,0.5]];portConstraint=eastwest;whiteSpace=wrap;html=1;" vertex="1" parent="2-OzAHWxCXo9uA6LsoVj-54">
          <mxGeometry y="66" width="310" height="26" as="geometry" />
        </mxCell>
        <mxCell id="2-OzAHWxCXo9uA6LsoVj-57" value="+ purchase(order: Order): Unit" style="text;strokeColor=none;fillColor=none;align=left;verticalAlign=top;spacingLeft=4;spacingRight=4;overflow=hidden;rotatable=0;points=[[0,0.5],[1,0.5]];portConstraint=eastwest;whiteSpace=wrap;html=1;" vertex="1" parent="2-OzAHWxCXo9uA6LsoVj-54">
          <mxGeometry y="92" width="310" height="28" as="geometry" />
        </mxCell>
        <mxCell id="2-OzAHWxCXo9uA6LsoVj-125" value="+ getStatus(): String" style="text;strokeColor=none;fillColor=none;align=left;verticalAlign=top;spacingLeft=4;spacingRight=4;overflow=hidden;rotatable=0;points=[[0,0.5],[1,0.5]];portConstraint=eastwest;whiteSpace=wrap;html=1;" vertex="1" parent="2-OzAHWxCXo9uA6LsoVj-54">
          <mxGeometry y="120" width="310" height="30" as="geometry" />
        </mxCell>
        <mxCell id="2-OzAHWxCXo9uA6LsoVj-91" style="rounded=0;orthogonalLoop=1;jettySize=auto;html=1;entryX=0.25;entryY=1;entryDx=0;entryDy=0;fontFamily=Helvetica;fontSize=12;fontColor=default;" edge="1" parent="1" source="2-OzAHWxCXo9uA6LsoVj-68" target="2-OzAHWxCXo9uA6LsoVj-82">
          <mxGeometry relative="1" as="geometry" />
        </mxCell>
        <mxCell id="2-OzAHWxCXo9uA6LsoVj-92" value="returns" style="edgeLabel;html=1;align=center;verticalAlign=middle;resizable=0;points=[];fontSize=12;fontFamily=Helvetica;fontColor=default;" vertex="1" connectable="0" parent="2-OzAHWxCXo9uA6LsoVj-91">
          <mxGeometry x="0.026" y="3" relative="1" as="geometry">
            <mxPoint as="offset" />
          </mxGeometry>
        </mxCell>
        <mxCell id="2-OzAHWxCXo9uA6LsoVj-68" value="UserInfo" style="swimlane;fontStyle=0;childLayout=stackLayout;horizontal=1;startSize=26;fillColor=none;horizontalStack=0;resizeParent=1;resizeParentMax=0;resizeLast=0;collapsible=1;marginBottom=0;whiteSpace=wrap;html=1;" vertex="1" parent="1">
          <mxGeometry x="3669.999999999999" y="-201.32" width="140" height="78" as="geometry" />
        </mxCell>
        <mxCell id="2-OzAHWxCXo9uA6LsoVj-69" value="+ user: User" style="text;strokeColor=none;fillColor=none;align=left;verticalAlign=top;spacingLeft=4;spacingRight=4;overflow=hidden;rotatable=0;points=[[0,0.5],[1,0.5]];portConstraint=eastwest;whiteSpace=wrap;html=1;" vertex="1" parent="2-OzAHWxCXo9uA6LsoVj-68">
          <mxGeometry y="26" width="140" height="26" as="geometry" />
        </mxCell>
        <mxCell id="2-OzAHWxCXo9uA6LsoVj-76" value="+ balance: BigDecimal" style="text;strokeColor=none;fillColor=none;align=left;verticalAlign=top;spacingLeft=4;spacingRight=4;overflow=hidden;rotatable=0;points=[[0,0.5],[1,0.5]];portConstraint=eastwest;whiteSpace=wrap;html=1;" vertex="1" parent="2-OzAHWxCXo9uA6LsoVj-68">
          <mxGeometry y="52" width="140" height="26" as="geometry" />
        </mxCell>
        <mxCell id="2-OzAHWxCXo9uA6LsoVj-70" style="edgeStyle=orthogonalEdgeStyle;rounded=0;orthogonalLoop=1;jettySize=auto;html=1;entryX=0;entryY=0.5;entryDx=0;entryDy=0;fontFamily=Helvetica;fontSize=12;fontColor=default;" edge="1" parent="1" source="2-OzAHWxCXo9uA6LsoVj-2" target="2-OzAHWxCXo9uA6LsoVj-69">
          <mxGeometry relative="1" as="geometry" />
        </mxCell>
        <mxCell id="2-OzAHWxCXo9uA6LsoVj-82" value="&lt;p style=&quot;margin:0px;margin-top:4px;text-align:center;&quot;&gt;&lt;b style=&quot;border-color: var(--border-color);&quot;&gt;&lt;b style=&quot;border-color: var(--border-color);&quot;&gt;&amp;lt;&amp;lt;interface&amp;gt;&amp;gt;&lt;/b&gt;&lt;br&gt;&lt;/b&gt;&lt;/p&gt;&lt;p style=&quot;margin:0px;margin-top:4px;text-align:center;&quot;&gt;&lt;b style=&quot;border-color: var(--border-color);&quot;&gt;UserInfoOutputPort&lt;/b&gt;&lt;/p&gt;&lt;hr size=&quot;1&quot;&gt;&lt;p style=&quot;margin:0px;margin-left:4px;&quot;&gt;&lt;/p&gt;&lt;p style=&quot;margin:0px;margin-left:4px;&quot;&gt;+ getUserInfo(user: User): UserInfo&lt;/p&gt;" style="verticalAlign=top;align=left;overflow=fill;fontSize=12;fontFamily=Helvetica;html=1;whiteSpace=wrap;noLabel=0;portConstraintRotation=0;" vertex="1" parent="1">
          <mxGeometry x="3688.08" y="-547.34" width="209.57" height="103.5" as="geometry" />
        </mxCell>
        <mxCell id="2-OzAHWxCXo9uA6LsoVj-84" style="rounded=0;orthogonalLoop=1;jettySize=auto;html=1;entryX=0.999;entryY=0.35;entryDx=0;entryDy=0;entryPerimeter=0;fontFamily=Helvetica;fontSize=12;fontColor=default;exitX=0;exitY=0.5;exitDx=0;exitDy=0;" edge="1" parent="1" source="2-OzAHWxCXo9uA6LsoVj-82" target="2-OzAHWxCXo9uA6LsoVj-32">
          <mxGeometry relative="1" as="geometry" />
        </mxCell>
        <mxCell id="2-OzAHWxCXo9uA6LsoVj-85" value="1" style="edgeLabel;html=1;align=center;verticalAlign=middle;resizable=0;points=[];fontSize=12;fontFamily=Helvetica;fontColor=default;" vertex="1" connectable="0" parent="2-OzAHWxCXo9uA6LsoVj-84">
          <mxGeometry x="0.6695" y="5" relative="1" as="geometry">
            <mxPoint as="offset" />
          </mxGeometry>
        </mxCell>
        <mxCell id="2-OzAHWxCXo9uA6LsoVj-86" value="1" style="edgeLabel;html=1;align=center;verticalAlign=middle;resizable=0;points=[];fontSize=12;fontFamily=Helvetica;fontColor=default;" vertex="1" connectable="0" parent="2-OzAHWxCXo9uA6LsoVj-84">
          <mxGeometry x="-0.758" y="-1" relative="1" as="geometry">
            <mxPoint as="offset" />
          </mxGeometry>
        </mxCell>
        <mxCell id="2-OzAHWxCXo9uA6LsoVj-97" style="rounded=0;orthogonalLoop=1;jettySize=auto;html=1;entryX=1;entryY=0.25;entryDx=0;entryDy=0;fontFamily=Helvetica;fontSize=12;fontColor=default;" edge="1" parent="1" source="2-OzAHWxCXo9uA6LsoVj-96" target="2-OzAHWxCXo9uA6LsoVj-32">
          <mxGeometry relative="1" as="geometry" />
        </mxCell>
        <mxCell id="2-OzAHWxCXo9uA6LsoVj-98" value="1" style="edgeLabel;html=1;align=center;verticalAlign=middle;resizable=0;points=[];fontSize=12;fontFamily=Helvetica;fontColor=default;" vertex="1" connectable="0" parent="2-OzAHWxCXo9uA6LsoVj-97">
          <mxGeometry x="0.7982" y="2" relative="1" as="geometry">
            <mxPoint as="offset" />
          </mxGeometry>
        </mxCell>
        <mxCell id="2-OzAHWxCXo9uA6LsoVj-99" value="1" style="edgeLabel;html=1;align=center;verticalAlign=middle;resizable=0;points=[];fontSize=12;fontFamily=Helvetica;fontColor=default;" vertex="1" connectable="0" parent="2-OzAHWxCXo9uA6LsoVj-97">
          <mxGeometry x="-0.8536" y="-3" relative="1" as="geometry">
            <mxPoint as="offset" />
          </mxGeometry>
        </mxCell>
        <mxCell id="2-OzAHWxCXo9uA6LsoVj-96" value="&lt;p style=&quot;margin:0px;margin-top:4px;text-align:center;&quot;&gt;&lt;b&gt;&amp;lt;&amp;lt;interface&amp;gt;&amp;gt;&lt;/b&gt;&lt;/p&gt;&lt;p style=&quot;margin:0px;margin-top:4px;text-align:center;&quot;&gt;&lt;b&gt;OrderRepository&lt;/b&gt;&lt;/p&gt;&lt;hr size=&quot;1&quot;&gt;&lt;p style=&quot;margin:0px;margin-left:4px;&quot;&gt;&lt;/p&gt;&lt;p style=&quot;margin:0px;margin-left:4px;&quot;&gt;+ save(order: Order): Optional&amp;lt;UUID&amp;gt;&lt;/p&gt;&lt;p style=&quot;margin:0px;margin-left:4px;&quot;&gt;+ update(order: Order): ???&lt;/p&gt;&lt;p style=&quot;margin:0px;margin-left:4px;&quot;&gt;+ delete(order: Order): ???&lt;/p&gt;&lt;p style=&quot;margin:0px;margin-left:4px;&quot;&gt;+ get(id: UUID) ???&lt;/p&gt;" style="verticalAlign=top;align=left;overflow=fill;fontSize=12;fontFamily=Helvetica;html=1;whiteSpace=wrap;" vertex="1" parent="1">
          <mxGeometry x="3688.08" y="-722.34" width="210" height="135" as="geometry" />
        </mxCell>
        <mxCell id="2-OzAHWxCXo9uA6LsoVj-110" value="uses" style="rounded=0;orthogonalLoop=1;jettySize=auto;html=1;entryX=0.25;entryY=0;entryDx=0;entryDy=0;fontFamily=Helvetica;fontSize=12;fontColor=default;edgeStyle=orthogonalEdgeStyle;" edge="1" parent="1" source="2-OzAHWxCXo9uA6LsoVj-106" target="2-OzAHWxCXo9uA6LsoVj-32">
          <mxGeometry relative="1" as="geometry" />
        </mxCell>
        <mxCell id="2-OzAHWxCXo9uA6LsoVj-106" value="&lt;p style=&quot;margin:0px;margin-top:4px;text-align:center;&quot;&gt;&lt;b style=&quot;border-color: var(--border-color);&quot;&gt;&amp;lt;&amp;lt;interface&amp;gt;&amp;gt;&lt;/b&gt;&lt;b&gt;&lt;br&gt;&lt;/b&gt;&lt;/p&gt;&lt;p style=&quot;margin:0px;margin-top:4px;text-align:center;&quot;&gt;&lt;b&gt;OrderEventHandlerInputPort&lt;/b&gt;&lt;/p&gt;&lt;hr size=&quot;1&quot;&gt;&lt;p style=&quot;margin:0px;margin-left:4px;&quot;&gt;&lt;/p&gt;&lt;p style=&quot;margin:0px;margin-left:4px;&quot;&gt;&lt;span style=&quot;background-color: initial;&quot;&gt;+ handleUnbookedEvent(order: Order): ???&lt;/span&gt;&lt;br&gt;&lt;/p&gt;" style="verticalAlign=top;align=left;overflow=fill;fontSize=12;fontFamily=Helvetica;html=1;whiteSpace=wrap;" vertex="1" parent="1">
          <mxGeometry x="2950" y="-1070" width="270" height="144" as="geometry" />
        </mxCell>
        <mxCell id="2-OzAHWxCXo9uA6LsoVj-114" value="&lt;p style=&quot;margin:0px;margin-top:4px;text-align:center;&quot;&gt;&lt;b&gt;&amp;lt;&amp;lt;interface&amp;gt;&amp;gt;&lt;/b&gt;&lt;/p&gt;&lt;p style=&quot;margin:0px;margin-top:4px;text-align:center;&quot;&gt;&lt;b&gt;OrderEventHandlerOutputPort&lt;/b&gt;&lt;/p&gt;&lt;hr size=&quot;1&quot;&gt;&lt;p style=&quot;margin:0px;margin-left:4px;&quot;&gt;&lt;/p&gt;&lt;p style=&quot;margin:0px;margin-left:4px;&quot;&gt;+ handleCreatedEvent(order: Order): Unit&lt;br&gt;&lt;/p&gt;&lt;p style=&quot;margin:0px;margin-left:4px;&quot;&gt;+ handleDiscardedEvent(order: Order): Unit&lt;/p&gt;&lt;p style=&quot;margin:0px;margin-left:4px;&quot;&gt;+ handlePurchasedEvent(order: Order): Unit&lt;br&gt;&lt;/p&gt;&lt;p style=&quot;margin:0px;margin-left:4px;&quot;&gt;+ handleFailedEvent(order: Order): Unit&lt;br&gt;&lt;/p&gt;&lt;p style=&quot;margin:0px;margin-left:4px;&quot;&gt;+ handleAcceptedEvent(order: Order): Unit&lt;br&gt;&lt;/p&gt;&lt;p style=&quot;margin:0px;margin-left:4px;&quot;&gt;+ handleUnbookedEvent(order: Order): Unit&lt;br&gt;&lt;/p&gt;" style="verticalAlign=top;align=left;overflow=fill;fontSize=12;fontFamily=Helvetica;html=1;whiteSpace=wrap;" vertex="1" parent="1">
          <mxGeometry x="2950" y="-749.9" width="260" height="176.25" as="geometry" />
        </mxCell>
        <mxCell id="2-OzAHWxCXo9uA6LsoVj-115" style="rounded=0;orthogonalLoop=1;jettySize=auto;html=1;entryX=0.001;entryY=0.214;entryDx=0;entryDy=0;entryPerimeter=0;fontFamily=Helvetica;fontSize=12;fontColor=default;" edge="1" parent="1" source="2-OzAHWxCXo9uA6LsoVj-114" target="2-OzAHWxCXo9uA6LsoVj-32">
          <mxGeometry relative="1" as="geometry" />
        </mxCell>
        <mxCell id="2-OzAHWxCXo9uA6LsoVj-116" value="1" style="edgeLabel;html=1;align=center;verticalAlign=middle;resizable=0;points=[];fontSize=12;fontFamily=Helvetica;fontColor=default;" vertex="1" connectable="0" parent="2-OzAHWxCXo9uA6LsoVj-115">
          <mxGeometry x="-0.8288" relative="1" as="geometry">
            <mxPoint as="offset" />
          </mxGeometry>
        </mxCell>
        <mxCell id="2-OzAHWxCXo9uA6LsoVj-117" value="1" style="edgeLabel;html=1;align=center;verticalAlign=middle;resizable=0;points=[];fontSize=12;fontFamily=Helvetica;fontColor=default;" vertex="1" connectable="0" parent="2-OzAHWxCXo9uA6LsoVj-115">
          <mxGeometry x="0.7388" y="1" relative="1" as="geometry">
            <mxPoint as="offset" />
          </mxGeometry>
        </mxCell>
        <mxCell id="2-OzAHWxCXo9uA6LsoVj-118" value="&lt;h1&gt;Events&lt;/h1&gt;&lt;p&gt;OrderDiscardedEvent&lt;/p&gt;&lt;p&gt;OrderCreatedEvent&lt;/p&gt;&lt;p&gt;OrderPurchasedEvent&lt;/p&gt;&lt;p&gt;OrderFailedEvent&lt;/p&gt;&lt;p&gt;OrderAcceptedEvent&lt;/p&gt;&lt;p&gt;OrderProductsUnbookedEvent&lt;/p&gt;" style="text;html=1;strokeColor=none;fillColor=none;spacing=5;spacingTop=-20;whiteSpace=wrap;overflow=hidden;rounded=0;fontSize=12;fontFamily=Helvetica;fontColor=default;" vertex="1" parent="1">
          <mxGeometry x="2640" y="-780" width="190" height="210" as="geometry" />
        </mxCell>
        <mxCell id="2-OzAHWxCXo9uA6LsoVj-120" value="&lt;h1&gt;API&lt;/h1&gt;&lt;p&gt;orders/create&lt;span style=&quot;white-space: pre;&quot;&gt;&#x9;&lt;span style=&quot;white-space: pre;&quot;&gt;&#x9;&lt;/span&gt;P&lt;/span&gt;OST&lt;/p&gt;&lt;p&gt;orders/discard&lt;span style=&quot;white-space: pre;&quot;&gt;&#x9;&lt;/span&gt;&lt;span style=&quot;white-space: pre;&quot;&gt;&#x9;&lt;/span&gt;POST&lt;/p&gt;&lt;p&gt;orders/purchase&lt;span style=&quot;white-space: pre;&quot;&gt;&#x9;&lt;/span&gt;POST&lt;/p&gt;&lt;p&gt;orders/statuses/get&lt;span style=&quot;white-space: pre;&quot;&gt;&#x9;&lt;/span&gt;&lt;span style=&quot;white-space: pre;&quot;&gt;&#x9;&lt;/span&gt;GET&lt;/p&gt;" style="text;html=1;strokeColor=none;fillColor=none;spacing=5;spacingTop=-20;whiteSpace=wrap;overflow=hidden;rounded=0;fontSize=12;fontFamily=Helvetica;fontColor=default;" vertex="1" parent="1">
          <mxGeometry x="2640" y="-1060" width="190" height="210" as="geometry" />
        </mxCell>
        <mxCell id="2-OzAHWxCXo9uA6LsoVj-121" value="Orders" style="shape=cylinder3;whiteSpace=wrap;html=1;boundedLbl=1;backgroundOutline=1;size=15;strokeColor=default;align=left;verticalAlign=top;fontFamily=Helvetica;fontSize=12;fontColor=default;fillColor=default;" vertex="1" parent="1">
          <mxGeometry x="4010" y="-682.34" width="60" height="70" as="geometry" />
        </mxCell>
        <mxCell id="2-OzAHWxCXo9uA6LsoVj-122" style="edgeStyle=orthogonalEdgeStyle;rounded=0;orthogonalLoop=1;jettySize=auto;html=1;entryX=0;entryY=0;entryDx=0;entryDy=27.5;entryPerimeter=0;fontFamily=Helvetica;fontSize=12;fontColor=default;" edge="1" parent="1" source="2-OzAHWxCXo9uA6LsoVj-96" target="2-OzAHWxCXo9uA6LsoVj-121">
          <mxGeometry relative="1" as="geometry" />
        </mxCell>
        <mxCell id="2-OzAHWxCXo9uA6LsoVj-188" value="Book product SAGA" style="swimlane;whiteSpace=wrap;html=1;strokeColor=default;align=left;verticalAlign=top;fontFamily=Helvetica;fontSize=12;fontColor=default;fillColor=default;" vertex="1" parent="1">
          <mxGeometry x="2600" y="40" width="920" height="360" as="geometry" />
        </mxCell>
        <mxCell id="2-OzAHWxCXo9uA6LsoVj-138" value="" style="points=[[0.145,0.145,0],[0.5,0,0],[0.855,0.145,0],[1,0.5,0],[0.855,0.855,0],[0.5,1,0],[0.145,0.855,0],[0,0.5,0]];shape=mxgraph.bpmn.event;html=1;verticalLabelPosition=bottom;labelBackgroundColor=#ffffff;verticalAlign=top;align=center;perimeter=ellipsePerimeter;outlineConnect=0;aspect=fixed;outline=standard;symbol=general;strokeColor=default;fontFamily=Helvetica;fontSize=12;fontColor=default;fillColor=default;" vertex="1" parent="2-OzAHWxCXo9uA6LsoVj-188">
          <mxGeometry x="40" y="115" width="50" height="50" as="geometry" />
        </mxCell>
        <mxCell id="2-OzAHWxCXo9uA6LsoVj-147" value="Check product on Warehouse" style="points=[[0.25,0,0],[0.5,0,0],[0.75,0,0],[1,0.25,0],[1,0.5,0],[1,0.75,0],[0.75,1,0],[0.5,1,0],[0.25,1,0],[0,0.75,0],[0,0.5,0],[0,0.25,0]];shape=mxgraph.bpmn.task;whiteSpace=wrap;rectStyle=rounded;size=10;html=1;container=1;expand=0;collapsible=0;taskMarker=abstract;strokeColor=default;align=left;verticalAlign=top;fontFamily=Helvetica;fontSize=12;fontColor=default;fillColor=default;" vertex="1" parent="2-OzAHWxCXo9uA6LsoVj-188">
          <mxGeometry x="160" y="100" width="120" height="80" as="geometry" />
        </mxCell>
        <mxCell id="2-OzAHWxCXo9uA6LsoVj-149" style="edgeStyle=orthogonalEdgeStyle;rounded=0;orthogonalLoop=1;jettySize=auto;html=1;entryX=0;entryY=0.5;entryDx=0;entryDy=0;entryPerimeter=0;fontFamily=Helvetica;fontSize=12;fontColor=default;exitX=1;exitY=0.5;exitDx=0;exitDy=0;exitPerimeter=0;" edge="1" parent="2-OzAHWxCXo9uA6LsoVj-188" source="2-OzAHWxCXo9uA6LsoVj-150" target="2-OzAHWxCXo9uA6LsoVj-154">
          <mxGeometry relative="1" as="geometry">
            <mxPoint x="810" y="140" as="targetPoint" />
          </mxGeometry>
        </mxCell>
        <mxCell id="2-OzAHWxCXo9uA6LsoVj-150" value="&lt;br&gt;&lt;br&gt;&amp;nbsp; &amp;nbsp; &amp;nbsp;Upsert order" style="points=[[0.25,0,0],[0.5,0,0],[0.75,0,0],[1,0.25,0],[1,0.5,0],[1,0.75,0],[0.75,1,0],[0.5,1,0],[0.25,1,0],[0,0.75,0],[0,0.5,0],[0,0.25,0]];shape=mxgraph.bpmn.task;whiteSpace=wrap;rectStyle=rounded;size=10;html=1;container=1;expand=0;collapsible=0;taskMarker=abstract;strokeColor=default;align=left;verticalAlign=top;fontFamily=Helvetica;fontSize=12;fontColor=default;fillColor=default;" vertex="1" parent="2-OzAHWxCXo9uA6LsoVj-188">
          <mxGeometry x="640" y="100" width="120" height="80" as="geometry" />
        </mxCell>
        <mxCell id="2-OzAHWxCXo9uA6LsoVj-151" style="edgeStyle=orthogonalEdgeStyle;rounded=0;orthogonalLoop=1;jettySize=auto;html=1;entryX=0;entryY=0.5;entryDx=0;entryDy=0;entryPerimeter=0;fontFamily=Helvetica;fontSize=12;fontColor=default;" edge="1" parent="2-OzAHWxCXo9uA6LsoVj-188" source="2-OzAHWxCXo9uA6LsoVj-147" target="2-OzAHWxCXo9uA6LsoVj-163">
          <mxGeometry relative="1" as="geometry" />
        </mxCell>
        <mxCell id="2-OzAHWxCXo9uA6LsoVj-154" value="" style="points=[[0.145,0.145,0],[0.5,0,0],[0.855,0.145,0],[1,0.5,0],[0.855,0.855,0],[0.5,1,0],[0.145,0.855,0],[0,0.5,0]];shape=mxgraph.bpmn.event;html=1;verticalLabelPosition=bottom;labelBackgroundColor=#ffffff;verticalAlign=top;align=center;perimeter=ellipsePerimeter;outlineConnect=0;aspect=fixed;outline=throwing;symbol=general;strokeColor=default;fontFamily=Helvetica;fontSize=12;fontColor=default;fillColor=default;" vertex="1" parent="2-OzAHWxCXo9uA6LsoVj-188">
          <mxGeometry x="820" y="115" width="50" height="50" as="geometry" />
        </mxCell>
        <mxCell id="2-OzAHWxCXo9uA6LsoVj-161" style="edgeStyle=orthogonalEdgeStyle;rounded=0;orthogonalLoop=1;jettySize=auto;html=1;fontFamily=Helvetica;fontSize=12;fontColor=default;exitX=1;exitY=0.5;exitDx=0;exitDy=0;exitPerimeter=0;entryX=0;entryY=0.5;entryDx=0;entryDy=0;entryPerimeter=0;" edge="1" parent="2-OzAHWxCXo9uA6LsoVj-188" source="2-OzAHWxCXo9uA6LsoVj-138" target="2-OzAHWxCXo9uA6LsoVj-147">
          <mxGeometry relative="1" as="geometry">
            <mxPoint x="100" y="140" as="sourcePoint" />
            <mxPoint x="170" y="140" as="targetPoint" />
          </mxGeometry>
        </mxCell>
        <mxCell id="2-OzAHWxCXo9uA6LsoVj-163" value="" style="points=[[0.25,0.25,0],[0.5,0,0],[0.75,0.25,0],[1,0.5,0],[0.75,0.75,0],[0.5,1,0],[0.25,0.75,0],[0,0.5,0]];shape=mxgraph.bpmn.gateway2;html=1;verticalLabelPosition=bottom;labelBackgroundColor=#ffffff;verticalAlign=top;align=center;perimeter=rhombusPerimeter;outlineConnect=0;outline=none;symbol=none;gwType=exclusive;strokeColor=default;fontFamily=Helvetica;fontSize=12;fontColor=default;fillColor=default;" vertex="1" parent="2-OzAHWxCXo9uA6LsoVj-188">
          <mxGeometry x="340" y="115" width="50" height="50" as="geometry" />
        </mxCell>
        <mxCell id="2-OzAHWxCXo9uA6LsoVj-165" value="" style="points=[[0.145,0.145,0],[0.5,0,0],[0.855,0.145,0],[1,0.5,0],[0.855,0.855,0],[0.5,1,0],[0.145,0.855,0],[0,0.5,0]];shape=mxgraph.bpmn.event;html=1;verticalLabelPosition=bottom;labelBackgroundColor=#ffffff;verticalAlign=top;align=center;perimeter=ellipsePerimeter;outlineConnect=0;aspect=fixed;outline=throwing;symbol=general;strokeColor=default;fontFamily=Helvetica;fontSize=12;fontColor=default;fillColor=default;" vertex="1" parent="2-OzAHWxCXo9uA6LsoVj-188">
          <mxGeometry x="340" y="270" width="50" height="50" as="geometry" />
        </mxCell>
        <mxCell id="2-OzAHWxCXo9uA6LsoVj-166" style="edgeStyle=orthogonalEdgeStyle;rounded=0;orthogonalLoop=1;jettySize=auto;html=1;entryX=0.5;entryY=0;entryDx=0;entryDy=0;entryPerimeter=0;fontFamily=Helvetica;fontSize=12;fontColor=default;" edge="1" parent="2-OzAHWxCXo9uA6LsoVj-188" source="2-OzAHWxCXo9uA6LsoVj-163" target="2-OzAHWxCXo9uA6LsoVj-165">
          <mxGeometry relative="1" as="geometry" />
        </mxCell>
        <mxCell id="2-OzAHWxCXo9uA6LsoVj-167" value="product not exists already" style="edgeLabel;html=1;align=center;verticalAlign=middle;resizable=0;points=[];fontSize=12;fontFamily=Helvetica;fontColor=default;" vertex="1" connectable="0" parent="2-OzAHWxCXo9uA6LsoVj-166">
          <mxGeometry x="0.0909" relative="1" as="geometry">
            <mxPoint as="offset" />
          </mxGeometry>
        </mxCell>
        <mxCell id="2-OzAHWxCXo9uA6LsoVj-186" style="edgeStyle=orthogonalEdgeStyle;rounded=0;orthogonalLoop=1;jettySize=auto;html=1;fontFamily=Helvetica;fontSize=12;fontColor=default;" edge="1" parent="2-OzAHWxCXo9uA6LsoVj-188" source="2-OzAHWxCXo9uA6LsoVj-184" target="2-OzAHWxCXo9uA6LsoVj-150">
          <mxGeometry relative="1" as="geometry" />
        </mxCell>
        <mxCell id="2-OzAHWxCXo9uA6LsoVj-184" value="&lt;br&gt;&lt;br&gt;&amp;nbsp; &amp;nbsp; Reserve product" style="points=[[0.25,0,0],[0.5,0,0],[0.75,0,0],[1,0.25,0],[1,0.5,0],[1,0.75,0],[0.75,1,0],[0.5,1,0],[0.25,1,0],[0,0.75,0],[0,0.5,0],[0,0.25,0]];shape=mxgraph.bpmn.task;whiteSpace=wrap;rectStyle=rounded;size=10;html=1;container=1;expand=0;collapsible=0;taskMarker=service;strokeColor=default;align=left;verticalAlign=top;fontFamily=Helvetica;fontSize=12;fontColor=default;fillColor=default;" vertex="1" parent="2-OzAHWxCXo9uA6LsoVj-188">
          <mxGeometry x="450" y="100" width="120" height="80" as="geometry" />
        </mxCell>
        <mxCell id="2-OzAHWxCXo9uA6LsoVj-185" style="edgeStyle=orthogonalEdgeStyle;rounded=0;orthogonalLoop=1;jettySize=auto;html=1;fontFamily=Helvetica;fontSize=12;fontColor=default;" edge="1" parent="2-OzAHWxCXo9uA6LsoVj-188" source="2-OzAHWxCXo9uA6LsoVj-163" target="2-OzAHWxCXo9uA6LsoVj-184">
          <mxGeometry relative="1" as="geometry" />
        </mxCell>
        <mxCell id="2-OzAHWxCXo9uA6LsoVj-198" value="Purchase order SAGA" style="swimlane;whiteSpace=wrap;html=1;strokeColor=default;align=left;verticalAlign=top;fontFamily=Helvetica;fontSize=12;fontColor=default;fillColor=default;" vertex="1" parent="1">
          <mxGeometry x="2600" y="460" width="1160" height="360" as="geometry" />
        </mxCell>
        <mxCell id="2-OzAHWxCXo9uA6LsoVj-200" value="" style="points=[[0.145,0.145,0],[0.5,0,0],[0.855,0.145,0],[1,0.5,0],[0.855,0.855,0],[0.5,1,0],[0.145,0.855,0],[0,0.5,0]];shape=mxgraph.bpmn.event;html=1;verticalLabelPosition=bottom;labelBackgroundColor=#ffffff;verticalAlign=top;align=center;perimeter=ellipsePerimeter;outlineConnect=0;aspect=fixed;outline=standard;symbol=general;strokeColor=default;fontFamily=Helvetica;fontSize=12;fontColor=default;fillColor=default;" vertex="1" parent="2-OzAHWxCXo9uA6LsoVj-198">
          <mxGeometry x="40" y="115" width="50" height="50" as="geometry" />
        </mxCell>
        <mxCell id="2-OzAHWxCXo9uA6LsoVj-201" value="&lt;br&gt;&lt;br&gt;&lt;span style=&quot;white-space: pre;&quot;&gt;&#x9;&lt;/span&gt;Check order" style="points=[[0.25,0,0],[0.5,0,0],[0.75,0,0],[1,0.25,0],[1,0.5,0],[1,0.75,0],[0.75,1,0],[0.5,1,0],[0.25,1,0],[0,0.75,0],[0,0.5,0],[0,0.25,0]];shape=mxgraph.bpmn.task;whiteSpace=wrap;rectStyle=rounded;size=10;html=1;container=1;expand=0;collapsible=0;taskMarker=abstract;strokeColor=default;align=left;verticalAlign=top;fontFamily=Helvetica;fontSize=12;fontColor=default;fillColor=default;" vertex="1" parent="2-OzAHWxCXo9uA6LsoVj-198">
          <mxGeometry x="160" y="100" width="120" height="80" as="geometry" />
        </mxCell>
        <mxCell id="2-OzAHWxCXo9uA6LsoVj-202" style="edgeStyle=orthogonalEdgeStyle;rounded=0;orthogonalLoop=1;jettySize=auto;html=1;entryX=0;entryY=0.5;entryDx=0;entryDy=0;entryPerimeter=0;fontFamily=Helvetica;fontSize=12;fontColor=default;exitX=1;exitY=0.5;exitDx=0;exitDy=0;exitPerimeter=0;" edge="1" parent="2-OzAHWxCXo9uA6LsoVj-198" source="2-OzAHWxCXo9uA6LsoVj-200" target="2-OzAHWxCXo9uA6LsoVj-201">
          <mxGeometry relative="1" as="geometry">
            <mxPoint x="290" y="140" as="sourcePoint" />
          </mxGeometry>
        </mxCell>
        <mxCell id="2-OzAHWxCXo9uA6LsoVj-203" style="edgeStyle=orthogonalEdgeStyle;rounded=0;orthogonalLoop=1;jettySize=auto;html=1;entryX=0;entryY=0.5;entryDx=0;entryDy=0;entryPerimeter=0;fontFamily=Helvetica;fontSize=12;fontColor=default;exitX=1;exitY=0.5;exitDx=0;exitDy=0;exitPerimeter=0;" edge="1" parent="2-OzAHWxCXo9uA6LsoVj-198" source="2-OzAHWxCXo9uA6LsoVj-204" target="2-OzAHWxCXo9uA6LsoVj-206">
          <mxGeometry relative="1" as="geometry">
            <mxPoint x="810" y="140" as="targetPoint" />
          </mxGeometry>
        </mxCell>
        <mxCell id="2-OzAHWxCXo9uA6LsoVj-204" value="&lt;br&gt;&lt;br&gt;&amp;nbsp; &amp;nbsp; &amp;nbsp;Upsert order" style="points=[[0.25,0,0],[0.5,0,0],[0.75,0,0],[1,0.25,0],[1,0.5,0],[1,0.75,0],[0.75,1,0],[0.5,1,0],[0.25,1,0],[0,0.75,0],[0,0.5,0],[0,0.25,0]];shape=mxgraph.bpmn.task;whiteSpace=wrap;rectStyle=rounded;size=10;html=1;container=1;expand=0;collapsible=0;taskMarker=abstract;strokeColor=default;align=left;verticalAlign=top;fontFamily=Helvetica;fontSize=12;fontColor=default;fillColor=default;" vertex="1" parent="2-OzAHWxCXo9uA6LsoVj-198">
          <mxGeometry x="640" y="100" width="120" height="80" as="geometry" />
        </mxCell>
        <mxCell id="2-OzAHWxCXo9uA6LsoVj-205" style="edgeStyle=orthogonalEdgeStyle;rounded=0;orthogonalLoop=1;jettySize=auto;html=1;entryX=0;entryY=0.5;entryDx=0;entryDy=0;entryPerimeter=0;fontFamily=Helvetica;fontSize=12;fontColor=default;" edge="1" parent="2-OzAHWxCXo9uA6LsoVj-198" source="2-OzAHWxCXo9uA6LsoVj-201" target="2-OzAHWxCXo9uA6LsoVj-208">
          <mxGeometry relative="1" as="geometry" />
        </mxCell>
        <mxCell id="2-OzAHWxCXo9uA6LsoVj-206" value="" style="points=[[0.145,0.145,0],[0.5,0,0],[0.855,0.145,0],[1,0.5,0],[0.855,0.855,0],[0.5,1,0],[0.145,0.855,0],[0,0.5,0]];shape=mxgraph.bpmn.event;html=1;verticalLabelPosition=bottom;labelBackgroundColor=#ffffff;verticalAlign=top;align=center;perimeter=ellipsePerimeter;outlineConnect=0;aspect=fixed;outline=throwing;symbol=general;strokeColor=default;fontFamily=Helvetica;fontSize=12;fontColor=default;fillColor=default;" vertex="1" parent="2-OzAHWxCXo9uA6LsoVj-198">
          <mxGeometry x="820" y="115" width="50" height="50" as="geometry" />
        </mxCell>
        <mxCell id="2-OzAHWxCXo9uA6LsoVj-208" value="" style="points=[[0.25,0.25,0],[0.5,0,0],[0.75,0.25,0],[1,0.5,0],[0.75,0.75,0],[0.5,1,0],[0.25,0.75,0],[0,0.5,0]];shape=mxgraph.bpmn.gateway2;html=1;verticalLabelPosition=bottom;labelBackgroundColor=#ffffff;verticalAlign=top;align=center;perimeter=rhombusPerimeter;outlineConnect=0;outline=none;symbol=none;gwType=exclusive;strokeColor=default;fontFamily=Helvetica;fontSize=12;fontColor=default;fillColor=default;" vertex="1" parent="2-OzAHWxCXo9uA6LsoVj-198">
          <mxGeometry x="340" y="115" width="50" height="50" as="geometry" />
        </mxCell>
        <mxCell id="2-OzAHWxCXo9uA6LsoVj-209" value="" style="points=[[0.145,0.145,0],[0.5,0,0],[0.855,0.145,0],[1,0.5,0],[0.855,0.855,0],[0.5,1,0],[0.145,0.855,0],[0,0.5,0]];shape=mxgraph.bpmn.event;html=1;verticalLabelPosition=bottom;labelBackgroundColor=#ffffff;verticalAlign=top;align=center;perimeter=ellipsePerimeter;outlineConnect=0;aspect=fixed;outline=throwing;symbol=general;strokeColor=default;fontFamily=Helvetica;fontSize=12;fontColor=default;fillColor=default;" vertex="1" parent="2-OzAHWxCXo9uA6LsoVj-198">
          <mxGeometry x="340" y="270" width="50" height="50" as="geometry" />
        </mxCell>
        <mxCell id="2-OzAHWxCXo9uA6LsoVj-210" style="edgeStyle=orthogonalEdgeStyle;rounded=0;orthogonalLoop=1;jettySize=auto;html=1;entryX=0.5;entryY=0;entryDx=0;entryDy=0;entryPerimeter=0;fontFamily=Helvetica;fontSize=12;fontColor=default;" edge="1" parent="2-OzAHWxCXo9uA6LsoVj-198" source="2-OzAHWxCXo9uA6LsoVj-208" target="2-OzAHWxCXo9uA6LsoVj-209">
          <mxGeometry relative="1" as="geometry" />
        </mxCell>
        <mxCell id="2-OzAHWxCXo9uA6LsoVj-211" value="Order not exists" style="edgeLabel;html=1;align=center;verticalAlign=middle;resizable=0;points=[];fontSize=12;fontFamily=Helvetica;fontColor=default;" vertex="1" connectable="0" parent="2-OzAHWxCXo9uA6LsoVj-210">
          <mxGeometry x="0.0909" relative="1" as="geometry">
            <mxPoint as="offset" />
          </mxGeometry>
        </mxCell>
        <mxCell id="2-OzAHWxCXo9uA6LsoVj-212" style="edgeStyle=orthogonalEdgeStyle;rounded=0;orthogonalLoop=1;jettySize=auto;html=1;fontFamily=Helvetica;fontSize=12;fontColor=default;" edge="1" parent="2-OzAHWxCXo9uA6LsoVj-198" source="2-OzAHWxCXo9uA6LsoVj-213" target="2-OzAHWxCXo9uA6LsoVj-204">
          <mxGeometry relative="1" as="geometry" />
        </mxCell>
        <mxCell id="2-OzAHWxCXo9uA6LsoVj-213" value="&lt;br&gt;&lt;br&gt;&amp;nbsp; &amp;nbsp; Reserve product" style="points=[[0.25,0,0],[0.5,0,0],[0.75,0,0],[1,0.25,0],[1,0.5,0],[1,0.75,0],[0.75,1,0],[0.5,1,0],[0.25,1,0],[0,0.75,0],[0,0.5,0],[0,0.25,0]];shape=mxgraph.bpmn.task;whiteSpace=wrap;rectStyle=rounded;size=10;html=1;container=1;expand=0;collapsible=0;taskMarker=service;strokeColor=default;align=left;verticalAlign=top;fontFamily=Helvetica;fontSize=12;fontColor=default;fillColor=default;" vertex="1" parent="2-OzAHWxCXo9uA6LsoVj-198">
          <mxGeometry x="450" y="100" width="120" height="80" as="geometry" />
        </mxCell>
        <mxCell id="2-OzAHWxCXo9uA6LsoVj-214" style="edgeStyle=orthogonalEdgeStyle;rounded=0;orthogonalLoop=1;jettySize=auto;html=1;fontFamily=Helvetica;fontSize=12;fontColor=default;" edge="1" parent="2-OzAHWxCXo9uA6LsoVj-198" source="2-OzAHWxCXo9uA6LsoVj-208" target="2-OzAHWxCXo9uA6LsoVj-213">
          <mxGeometry relative="1" as="geometry" />
        </mxCell>
      </root>
    </mxGraphModel>
  </diagram>
</mxfile>
